<svg xmlns="http://www.w3.org/2000/svg" width="927" height="261" viewBox="0 0 927 261">
  <g fill="none" transform="translate(.66 .348)">
    <path fill="#267280" d="M338.975118 104.553839C338.029008 104.553839 337.36674 104.111313 336.988296 103.226249L326.01347 78.5709944C325.887322 78.2548998 325.635029 78.0968549 325.256585 78.0968549L319.39073 78.0968549C318.949212 78.0968549 318.728456 78.3181178 318.728456 78.7606502L318.728456 102.846937C318.728456 103.352688 318.570773 103.763605 318.255403 104.0797 317.940033 104.395794 317.530058 104.553839 317.025466 104.553839L304.726092 104.553839C304.221499 104.553839 303.811524 104.395794 303.496154 104.0797 303.180784 103.763605 303.023101 103.352688 303.023101 102.846937L303.023101 39.8812109C303.023101 39.3754596 303.180784 38.9645428 303.496154 38.6484482 303.811524 38.3323536 304.221499 38.1743087 304.726092 38.1743087L332.257768 38.1743087C336.420653 38.1743087 340.078892 39.0277513 343.232594 40.734662 346.386295 42.4415728 348.830377 44.8596601 350.564913 47.9889964 352.299449 51.1183328 353.166704 54.7059525 353.166704 58.7519631 353.166704 62.9244116 352.141766 66.5594448 350.09186 69.6571717 348.041954 72.7548986 345.187897 74.9991365 341.529603 76.3899527 341.088085 76.5796094 340.961939 76.8956992 341.151161 77.3382317L353.261314 102.562453 353.450535 103.321076C353.450535 104.142922 352.945951 104.553839 351.936766 104.553839L338.975118 104.553839zM319.39073 51.6398706C318.949212 51.6398706 318.728456 51.8611335 318.728456 52.3036659L318.728456 65.3899162C318.728456 65.8324486 318.949212 66.0537115 319.39073 66.0537115L329.703282 66.0537115C332.037021 66.0537115 333.929214 65.4057273 335.379916 64.1097395 336.830619 62.8137517 337.555959 61.0910621 337.555959 58.9416189 337.555959 56.7289569 336.830619 54.9588538 335.379916 53.6312565 333.929214 52.3036593 332.037021 51.6398706 329.703282 51.6398706L319.39073 51.6398706zM385.050466 91.9417284C387.005761 91.9417284 388.819112 91.641443 390.490574 91.0408633 392.162035 90.4402836 393.565411 89.6342545 394.700744 88.6227518 395.079188 88.1802194 395.489163 87.9589565 395.930681 87.9589565 396.309126 87.9589565 396.687564 88.1802194 397.066008 88.6227518L402.931864 95.6400165C403.310308 96.0825489 403.499527 96.4934657 403.499527 96.8727792 403.499527 97.3153116 403.310308 97.7262284 402.931864 98.1055419 400.787347 100.381423 398.075204 102.151526 394.795355 103.415904 391.515505 104.680283 388.014949 105.312462 384.293581 105.312462 380.004547 105.312462 376.204394 104.538042 372.893007 102.989179 369.581621 101.440315 366.85371 99.2750999 364.709193 96.4934676 361.240122 92.0681434 359.505612 86.4417443 359.505612 79.6141013 359.505612 76.5795933 359.852514 73.7347847 360.546328 71.0795902 361.933957 66.1485147 364.646099 62.1815872 368.682837 59.1786887 372.719575 56.1757902 377.450056 54.6743634 382.874423 54.6743634 389.181826 54.6743634 394.274977 56.6341204 398.15403 60.5536933 402.033083 64.4732661 404.571774 69.9416203 405.770181 76.9589201 406.022477 78.7290497 406.211696 80.6571978 406.337844 82.743422 406.337844 83.8813625 405.770186 84.4503242 404.634854 84.4503242L376.062462 84.4503242C375.87324 84.4503242 375.699789 84.5135422 375.542103 84.63998 375.384418 84.7664178 375.337114 84.9560717 375.400188 85.2089474L375.967851 87.1055054C376.598591 88.6227594 377.70237 89.8080963 379.279221 90.6615517 380.856072 91.5150071 382.779801 91.9417284 385.050466 91.9417284zM382.590591 68.2347532C379.373815 68.2347532 377.197794 69.7835934 376.062462 72.8813203 375.810165 73.5135095 375.652483 73.9876443 375.589409 74.3037388L375.589409 74.4933946C375.589409 74.8727081 375.810165 75.062362 376.251683 75.062362L389.213331 75.062362C389.465627 75.062362 389.639078 74.9833396 389.733689 74.8252923 389.8283 74.667245 389.844068 74.4933956 389.780994 74.3037388L389.402552 73.0709761C388.89796 71.5537221 388.07801 70.3683852 386.942677 69.5149299 385.807345 68.6614745 384.356664 68.2347532 382.590591 68.2347532zM433.207246 54.7691913C437.370132 54.7691913 441.154517 55.4803935 444.560515 56.9028191 447.966512 58.3252447 450.647118 60.2850017 452.602413 62.7821489 454.557708 65.2792961 455.535341 68.0450822 455.535341 71.0795902L455.535341 102.846937C455.535341 103.352688 455.377658 103.763605 455.062288 104.0797 454.746918 104.395794 454.336943 104.553839 453.83235 104.553839L441.532976 104.553839C441.028384 104.553839 440.618409 104.395794 440.303039 104.0797 439.987669 103.763605 439.829986 103.352688 439.829986 102.846937L439.829986 100.950379C439.829986 100.634284 439.751145 100.44463 439.59346 100.381412 439.435774 100.318193 439.262324 100.41302 439.073101 100.665895 436.55014 103.763622 432.481926 105.312462 426.868338 105.312462 421.88549 105.312462 417.911885 104.127125 414.947406 101.756416 411.982927 99.3857067 410.500709 95.892914 410.500709 91.2779331 410.500709 86.4100765 412.187914 82.6486074 415.562375 79.9934129 418.936835 77.3382184 423.809231 76.0106411 430.179708 76.0106411L439.167712 76.0106411C439.60923 76.0106411 439.829986 75.7893782 439.829986 75.3468458L439.829986 73.7347714C439.829986 72.0278607 439.278097 70.6844789 438.174301 69.7045857 437.070506 68.7246925 435.509447 68.2347532 433.491078 68.2347532 432.040375 68.2347532 430.794682 68.4718206 429.75396 68.9459625 428.713239 69.4201043 427.97213 70.0680885 427.530612 70.8899344 427.215242 71.3324668 426.915645 71.6643612 426.631811 71.8856274 426.347978 72.1068936 425.985308 72.185916 425.54379 72.1226971L412.865973 70.5106228C411.730641 70.384185 411.226056 69.9416592 411.352204 69.1830322 411.667574 66.4646188 412.80289 64.0149225 414.758185 61.8338699 416.71348 59.6528173 419.283708 57.9301277 422.468946 56.6657493 425.654185 55.401371 429.233582 54.7691913 433.207246 54.7691913zM431.598866 94.0279422C433.995679 94.0279422 435.966713 93.411567 437.512027 92.1787981 439.057341 90.9460292 439.829986 89.3181666 439.829986 87.2951612L439.829986 85.2089474C439.829986 84.766415 439.60923 84.5451521 439.167712 84.5451521L433.680299 84.5451521C431.283486 84.5451521 429.438598 84.9560689 428.145581 85.7779148 426.852563 86.5997607 426.206064 87.8325111 426.206064 89.4762029 426.206064 90.8670191 426.679112 91.9733335 427.625222 92.7951795 428.571333 93.6170254 429.895868 94.0279422 431.598866 94.0279422zM485.810723 105.312462C480.638653 105.312462 476.113159 104.016494 472.234106 101.424518 468.355054 98.8325428 465.595606 95.2607276 463.955681 90.7089657 462.757275 87.6744577 462.158081 84.0394245 462.158081 79.8037571 462.158081 75.5680897 462.757275 71.9330565 463.955681 68.8985485 465.532532 64.4732244 468.276211 61.0120406 472.186801 58.5148934 476.097391 56.0177462 480.638653 54.7691913 485.810723 54.7691913 491.045868 54.7691913 495.650203 56.0651597 499.623866 58.6571352 503.59753 61.2491108 506.278136 64.5364452 507.665765 68.5192369 508.044209 69.5307396 508.296501 70.573836 508.422649 71.6485576L508.422649 72.0278692C508.422649 72.8497151 507.918065 73.3554589 506.90888 73.5451156L494.893338 75.3468458 494.420285 75.4416737C493.600323 75.4416737 493.127275 75.0623658 493.001127 74.3037388L492.622684 72.9761482C492.24424 71.5853321 491.42429 70.4474086 490.162809 69.5623438 488.901329 68.677279 487.419111 68.2347532 485.716113 68.2347532 482.373189 68.2347532 480.165631 69.7203755 479.093373 72.6916645 478.399558 74.4617942 478.052656 76.864077 478.052656 79.898585 478.052656 82.6169984 478.368022 84.9876722 478.998762 87.0106775 480.197169 90.2348423 482.436263 91.8469005 485.716113 91.8469005 487.356037 91.8469005 488.759413 91.4359837 489.926283 90.6141377 491.093153 89.7922918 491.960407 88.5911504 492.528074 87.0106775L492.622684 86.536538C492.685758 86.2204434 492.922282 85.8885491 493.332264 85.5408451 493.742245 85.193141 494.167988 85.0509006 494.609506 85.1141195L506.719659 87.0106775C507.854992 87.2003343 508.32804 87.832514 508.138818 88.9072355 508.01267 89.9187382 507.854987 90.7089628 507.665765 91.2779331 506.151988 95.7032572 503.424077 99.1486365 499.481951 101.614174 495.539824 104.079712 490.982794 105.312462 485.810723 105.312462zM544.94233 66.4330231C544.94233 66.9387744 544.784647 67.3496912 544.469277 67.6657858 544.153907 67.9818804 543.743932 68.1399253 543.239339 68.1399253L535.386662 68.1399253C534.945144 68.1399253 534.724388 68.3611882 534.724388 68.8037206L534.724388 85.3986032C534.724388 89.0020815 536.175069 90.8037936 539.076474 90.8037936L542.009402 90.8037936C542.513994 90.8037936 542.923969 90.9618385 543.239339 91.2779331 543.55471 91.5940276 543.712392 92.0049444 543.712392 92.5106958L543.712392 102.467625C543.712392 103.479128 543.176271 104.04809 542.104013 104.174528 539.202607 104.300965 537.152732 104.364183 535.954325 104.364183 530.466885 104.364183 526.398671 103.479132 523.749562 101.709002 521.100453 99.9388725 519.744381 96.6515381 519.681307 91.8469005L519.681307 68.8037206C519.681307 68.3611882 519.460552 68.1399253 519.019033 68.1399253L514.383115 68.1399253C513.878523 68.1399253 513.468548 67.9818804 513.153178 67.6657858 512.837808 67.3496912 512.680125 66.9387744 512.680125 66.4330231L512.680125 57.2347167C512.680125 56.7289654 512.837808 56.3180486 513.153178 56.001954 513.468548 55.6858594 513.878523 55.5278145 514.383115 55.5278145L519.019033 55.5278145C519.460552 55.5278145 519.681307 55.3065516 519.681307 54.8640192L519.681307 44.1484664C519.681307 43.6427151 519.83899 43.2317983 520.15436 42.9157037 520.46973 42.5996092 520.879705 42.4415642 521.384298 42.4415642L533.021398 42.4415642C533.52599 42.4415642 533.935965 42.5996092 534.251335 42.9157037 534.566705 43.2317983 534.724388 43.6427151 534.724388 44.1484664L534.724388 54.8640192C534.724388 55.3065516 534.945144 55.5278145 535.386662 55.5278145L543.239339 55.5278145C543.743932 55.5278145 544.153907 55.6858594 544.469277 56.001954 544.784647 56.3180486 544.94233 56.7289654 544.94233 57.2347167L544.94233 66.4330231zM595.180542 105.312462C590.13462 105.312462 585.703736 104.300975 581.887757 102.27797 578.071779 100.254964 575.107344 97.4101556 572.994364 93.7434585 570.881384 90.0767613 569.82491 85.8411574 569.82491 81.0365198L569.82491 61.5968002C569.82491 56.7921625 570.881384 52.5723631 572.994364 48.9372754 575.107344 45.3021877 578.071779 42.4731837 581.887757 40.4501783 585.703736 38.427173 590.13462 37.4156855 595.180542 37.4156855 600.163391 37.4156855 604.578507 38.3797595 608.426022 40.3079365 612.273538 42.2361134 615.253741 44.8754636 617.366721 48.2260662 619.479701 51.5766687 620.536175 55.2749199 620.536175 59.3209305 620.536175 60.3956521 619.968518 60.9330049 618.833185 60.9330049L606.533811 60.9330049C605.398478 60.9330049 604.830821 60.743351 604.830821 60.3640375L604.830821 59.79507C604.830821 57.3295323 603.963566 55.2275349 602.22903 53.4890147 600.494494 51.7504945 598.145022 50.8812474 595.180542 50.8812474 592.279137 50.8812474 589.945433 51.8295169 588.17936 53.7260844 586.413287 55.6226519 585.530264 58.0881527 585.530264 61.1226607L585.530264 81.5106593C585.530264 84.5451673 586.507897 87.010668 588.463192 88.9072355 590.418487 90.803803 592.878337 91.7520726 595.842816 91.7520726 598.618074 91.7520726 600.857168 91.0092614 602.560167 89.5236169 604.263166 88.0379724 605.114652 85.9675839 605.114652 83.3123894L605.114652 80.846864C605.114652 80.4043316 604.893897 80.1830687 604.452378 80.1830687L595.748206 80.1830687C595.243614 80.1830687 594.833639 80.0250238 594.518268 79.7089292 594.202898 79.3928346 594.045216 78.9819178 594.045216 78.4761665L594.045216 69.1830322C594.045216 68.6772809 594.202898 68.2663641 594.518268 67.9502695 594.833639 67.6341749 595.243614 67.47613 595.748206 67.47613L618.833185 67.47613C619.337777 67.47613 619.747752 67.6341749 620.063122 67.9502695 620.378493 68.2663641 620.536175 68.6772809 620.536175 69.1830322L620.536175 81.5106593C620.536175 86.252078 619.479701 90.4244639 617.366721 94.0279422 615.253741 97.6314204 612.289306 100.413011 608.473328 102.372797 604.657349 104.332584 600.226465 105.312462 595.180542 105.312462zM653.744486 54.8640192C655.762854 54.8640192 657.402755 55.211718 658.664235 55.9071261 659.484198 56.3496585 659.799563 57.0450562 659.610341 57.9933399L657.528908 70.1313112C657.465834 70.9531571 657.055859 71.3640739 656.298971 71.3640739 655.983601 71.3640739 655.731308 71.3324649 655.542086 71.269246 654.785198 71.0795893 653.839102 70.9847623 652.703769 70.9847623 651.694585 70.9847623 650.937708 71.0479803 650.433116 71.1744181 648.477821 71.4272938 646.822152 72.1859094 645.466061 73.4502877 644.109969 74.7146661 643.431933 76.3899422 643.431933 78.4761665L643.431933 102.846937C643.431933 103.352688 643.274251 103.763605 642.95888 104.0797 642.64351 104.395794 642.233535 104.553839 641.728943 104.553839L629.429569 104.553839C628.924977 104.553839 628.515002 104.395794 628.199632 104.0797 627.884261 103.763605 627.726579 103.352688 627.726579 102.846937L627.726579 57.2347167C627.726579 56.7289654 627.884261 56.3180486 628.199632 56.001954 628.515002 55.6858594 628.924977 55.5278145 629.429569 55.5278145L641.728943 55.5278145C642.233535 55.5278145 642.64351 55.6858594 642.95888 56.001954 643.274251 56.3180486 643.431933 56.7289654 643.431933 57.2347167L643.431933 59.3209305C643.431933 59.6370251 643.510775 59.826679 643.66846 59.889898 643.826145 59.9531169 643.968059 59.8582899 644.094207 59.6054142 646.617168 56.4444684 649.833896 54.8640192 653.744486 54.8640192zM685.155195 54.7691913C689.318081 54.7691913 693.102466 55.4803935 696.508463 56.9028191 699.914461 58.3252447 702.595067 60.2850017 704.550362 62.7821489 706.505657 65.2792961 707.483289 68.0450822 707.483289 71.0795902L707.483289 102.846937C707.483289 103.352688 707.325607 103.763605 707.010237 104.0797 706.694866 104.395794 706.284891 104.553839 705.780299 104.553839L693.480925 104.553839C692.976333 104.553839 692.566358 104.395794 692.250988 104.0797 691.935617 103.763605 691.777935 103.352688 691.777935 102.846937L691.777935 100.950379C691.777935 100.634284 691.699093 100.44463 691.541408 100.381412 691.383723 100.318193 691.210272 100.41302 691.02105 100.665895 688.498089 103.763622 684.429875 105.312462 678.816287 105.312462 673.833438 105.312462 669.859834 104.127125 666.895355 101.756416 663.930875 99.3857067 662.448658 95.892914 662.448658 91.2779331 662.448658 86.4100765 664.135863 82.6486074 667.510323 79.9934129 670.884784 77.3382184 675.75718 76.0106411 682.127657 76.0106411L691.115661 76.0106411C691.557179 76.0106411 691.777935 75.7893782 691.777935 75.3468458L691.777935 73.7347714C691.777935 72.0278607 691.226045 70.6844789 690.12225 69.7045857 689.018454 68.7246925 687.457396 68.2347532 685.439027 68.2347532 683.988324 68.2347532 682.742631 68.4718206 681.701909 68.9459625 680.661188 69.4201043 679.920079 70.0680885 679.478561 70.8899344 679.163191 71.3324668 678.863593 71.6643612 678.57976 71.8856274 678.295927 72.1068936 677.933257 72.185916 677.491739 72.1226971L664.813922 70.5106228C663.67859 70.384185 663.174005 69.9416592 663.300153 69.1830322 663.615523 66.4646188 664.750839 64.0149225 666.706134 61.8338699 668.661429 59.6528173 671.231657 57.9301277 674.416895 56.6657493 677.602134 55.401371 681.181531 54.7691913 685.155195 54.7691913zM683.546815 94.0279422C685.943628 94.0279422 687.914662 93.411567 689.459976 92.1787981 691.00529 90.9460292 691.777935 89.3181666 691.777935 87.2951612L691.777935 85.2089474C691.777935 84.766415 691.557179 84.5451521 691.115661 84.5451521L685.628248 84.5451521C683.231435 84.5451521 681.386547 84.9560689 680.093529 85.7779148 678.800512 86.5997607 678.154013 87.8325111 678.154013 89.4762029 678.154013 90.8670191 678.627061 91.9733335 679.573171 92.7951795 680.519282 93.6170254 681.843816 94.0279422 683.546815 94.0279422zM761.222093 69.372688C762.231278 72.4704149 762.735863 76.1054481 762.735863 80.2778966 762.735863 84.7664397 762.073595 88.7491717 760.749041 92.2262121 759.298338 96.1457849 756.948866 99.3224878 753.700553 101.756416 750.452241 104.190344 746.80977 105.40729 742.773032 105.40729 737.979406 105.40729 734.38424 103.953277 731.987427 101.045207 731.798205 100.792331 731.624754 100.697504 731.467069 100.760723 731.309384 100.823942 731.230543 101.013596 731.230543 101.329691L731.230543 120.200443C731.230543 120.706194 731.07286 121.117111 730.75749 121.433205 730.44212 121.7493 730.032145 121.907345 729.527552 121.907345L717.228178 121.907345C716.723586 121.907345 716.313611 121.7493 715.998241 121.433205 715.682871 121.117111 715.525188 120.706194 715.525188 120.200443L715.525188 57.2347167C715.525188 56.7289654 715.682871 56.3180486 715.998241 56.001954 716.313611 55.6858594 716.723586 55.5278145 717.228178 55.5278145L729.527552 55.5278145C730.032145 55.5278145 730.44212 55.6858594 730.75749 56.001954 731.07286 56.3180486 731.230543 56.7289654 731.230543 57.2347167L731.230543 59.5105863C731.230543 59.8266809 731.309384 60.0163348 731.467069 60.0795538 731.624754 60.1427727 731.798205 60.0479457 731.987427 59.79507 734.38424 56.4444675 737.979406 54.7691913 742.773032 54.7691913 746.872844 54.7691913 750.657229 56.1283776 754.126301 58.846791 757.595372 61.5652045 759.960613 65.0738017 761.222093 69.372688zM744.192191 88.2434402C745.327523 86.157216 745.895181 83.4072344 745.895181 79.9934129 745.895181 76.7692481 745.35906 74.1457025 744.286801 72.1226971 742.962247 69.7835972 741.038518 68.6140648 738.515557 68.6140648 736.118743 68.6140648 734.258087 69.8152062 732.933533 72.217525 731.861274 74.2405304 731.325153 76.8324671 731.325153 79.9934129 731.325153 83.4704533 731.892811 86.2520439 733.028143 88.3382681 734.352698 90.4877113 736.181817 91.5624168 738.515557 91.5624168 740.975444 91.5624168 742.867636 90.4561023 744.192191 88.2434402zM796.133394 54.7691913C801.053168 54.7691913 805.074077 56.333836 808.196242 59.4631724 811.318406 62.5925088 812.879465 66.8439171 812.879465 72.217525L812.879465 102.846937C812.879465 103.352688 812.721782 103.763605 812.406412 104.0797 812.091042 104.395794 811.681067 104.553839 811.176475 104.553839L798.8771 104.553839C798.372508 104.553839 797.962533 104.395794 797.647163 104.0797 797.331793 103.763605 797.17411 103.352688 797.17411 102.846937L797.17411 75.6313295C797.17411 73.4186674 796.590684 71.6327598 795.423815 70.2735531 794.256945 68.9143464 792.695886 68.2347532 790.740591 68.2347532 788.785296 68.2347532 787.208469 68.9143464 786.010063 70.2735531 784.811656 71.6327598 784.212462 73.4186674 784.212462 75.6313295L784.212462 102.846937C784.212462 103.352688 784.054779 103.763605 783.739409 104.0797 783.424039 104.395794 783.014064 104.553839 782.509472 104.553839L770.210098 104.553839C769.705505 104.553839 769.29553 104.395794 768.98016 104.0797 768.66479 103.763605 768.507107 103.352688 768.507107 102.846937L768.507107 39.8812109C768.507107 39.3754596 768.66479 38.9645428 768.98016 38.6484482 769.29553 38.3323536 769.705505 38.1743087 770.210098 38.1743087L782.509472 38.1743087C783.014064 38.1743087 783.424039 38.3323536 783.739409 38.6484482 784.054779 38.9645428 784.212462 39.3754596 784.212462 39.8812109L784.212462 59.889898C784.212462 60.2059925 784.291303 60.3956464 784.448988 60.4588654 784.606674 60.5220843 784.748588 60.4272573 784.874736 60.1743817 787.460771 56.5709034 791.21362 54.7691913 796.133394 54.7691913zM844.857838 37.4156855C849.840686 37.4156855 854.224265 38.4429775 858.008707 40.4975923 861.793149 42.5522071 864.726047 45.4444291 866.80749 49.1743452 868.888933 52.9042613 869.929639 57.2030831 869.929639 62.0709397L869.929639 81.8899709C869.929639 87.4532355 868.46319 92.1945832 865.530247 96.114156 862.597305 100.033729 858.544859 102.720492 853.372789 104.174528 852.994345 104.364184 852.805125 104.617056 852.805125 104.933151L852.805125 111.571104C852.805125 112.076855 852.647443 112.487772 852.332073 112.803866 852.016702 113.119961 851.606727 113.278006 851.102135 113.278006L838.802761 113.278006C838.298169 113.278006 837.888194 113.119961 837.572824 112.803866 837.257454 112.487772 837.099771 112.076855 837.099771 111.571104L837.099771 104.933151C837.099771 104.617056 836.910552 104.364184 836.532107 104.174528 831.360037 102.783711 827.291823 100.128557 824.327344 96.2089839 821.362864 92.2894111 819.880647 87.5164545 819.880647 81.8899709L819.880647 62.0709397C819.880647 57.2030831 820.921353 52.9042613 823.002796 49.1743452 825.084239 45.4444291 828.017137 42.5522071 831.801579 40.4975923 835.586021 38.4429775 839.938063 37.4156855 844.857838 37.4156855zM854.224284 61.2174886C854.224284 58.1197617 853.372797 55.6226519 851.669799 53.7260844 849.9668 51.8295169 847.696169 50.8812474 844.857838 50.8812474 842.08258 50.8812474 839.843486 51.8295169 838.140487 53.7260844 836.437488 55.6226519 835.586002 58.1197617 835.586002 61.2174886L835.586002 81.5106593C835.586002 84.6083862 836.437488 87.1054959 838.140487 89.0020634 839.843486 90.8986309 842.08258 91.8469005 844.857838 91.8469005 847.696169 91.8469005 849.9668 90.8986309 851.669799 89.0020634 853.372797 87.1054959 854.224284 84.6083862 854.224284 81.5106593L854.224284 61.2174886zM879.674527 104.553839C879.169935 104.553839 878.75996 104.395794 878.44459 104.0797 878.12922 103.763605 877.971537 103.352688 877.971537 102.846937L877.971537 39.8812109C877.971537 39.3754596 878.12922 38.9645428 878.44459 38.6484482 878.75996 38.3323536 879.169935 38.1743087 879.674527 38.1743087L891.973902 38.1743087C892.478494 38.1743087 892.888469 38.3323536 893.203839 38.6484482 893.519209 38.9645428 893.676892 39.3754596 893.676892 39.8812109L893.676892 90.4244819C893.676892 90.8670144 893.897648 91.0882773 894.339166 91.0882773L923.763053 91.0882773C924.267645 91.0882773 924.677621 91.2463222 924.992991 91.5624168 925.308361 91.8785113 925.466044 92.2894281 925.466044 92.7951795L925.466044 102.846937C925.466044 103.352688 925.308361 103.763605 924.992991 104.0797 924.677621 104.395794 924.267645 104.553839 923.763053 104.553839L879.674527 104.553839zM346.733185 206.676194C345.724 206.676194 345.09327 206.202059 344.840973 205.253775L342.66493 197.477887C342.601856 197.098574 342.349564 196.90892 341.908046 196.90892L320.526057 196.90892C320.147613 196.90892 319.89532 197.098574 319.769172 197.477887L317.593129 205.253775C317.340833 206.202059 316.710102 206.676194 315.700918 206.676194L302.360827 206.676194C301.730087 206.676194 301.288575 206.502344 301.036279 206.15464 300.783983 205.806936 300.752447 205.348606 300.941669 204.779636L320.809889 141.719082C321.125259 140.770798 321.787526 140.296663 322.79671 140.296663L339.542781 140.296663C340.61504 140.296663 341.277307 140.770798 341.529603 141.719082L361.492434 204.779636C361.555508 204.906073 361.587044 205.127336 361.587044 205.443431 361.587044 206.265277 361.08246 206.676194 360.073275 206.676194L346.733185 206.676194zM323.648206 184.201981C323.648206 184.581295 323.837425 184.770949 324.215869 184.770949L338.218233 184.770949C338.47053 184.770949 338.643981 184.691926 338.738592 184.533879 338.833203 184.375832 338.848971 184.201982 338.785897 184.012325L331.595494 158.788104C331.53242 158.472009 331.422042 158.313964 331.264357 158.313964 331.106671 158.313964 330.964757 158.472009 330.838609 158.788104L323.648206 184.012325 323.648206 184.201981zM390.537879 207.434817C385.365808 207.434817 380.840315 206.138849 376.961262 203.546873 373.082209 200.954897 370.322762 197.383082 368.682837 192.83132 367.484431 189.796812 366.885236 186.161779 366.885236 181.926112 366.885236 177.690444 367.484431 174.055411 368.682837 171.020903 370.259688 166.595579 373.003367 163.134395 376.913957 160.637248 380.824547 158.140101 385.365808 156.891546 390.537879 156.891546 395.773023 156.891546 400.377358 158.187514 404.351022 160.77949 408.324686 163.371465 411.005292 166.6588 412.392921 170.641591 412.771365 171.653094 413.023657 172.696191 413.149805 173.770912L413.149805 174.150224C413.149805 174.97207 412.645221 175.477813 411.636036 175.66747L399.620494 177.4692 399.147441 177.564028C398.327478 177.564028 397.85443 177.18472 397.728282 176.426093L397.34984 175.098503C396.971396 173.707687 396.151446 172.569763 394.889965 171.684698 393.628485 170.799633 392.146267 170.357108 390.443268 170.357108 387.100345 170.357108 384.892787 171.84273 383.820528 174.814019 383.126714 176.584149 382.779812 178.986431 382.779812 182.020939 382.779812 184.739353 383.095178 187.110027 383.725918 189.133032 384.924324 192.357197 387.163419 193.969255 390.443268 193.969255 392.083193 193.969255 393.486569 193.558338 394.653439 192.736492 395.820308 191.914646 396.687563 190.713505 397.255229 189.133032L397.34984 188.658893C397.412914 188.342798 397.649438 188.010904 398.059419 187.6632 398.4694 187.315496 398.895144 187.173255 399.336662 187.236474L411.446815 189.133032C412.582147 189.322689 413.055196 189.954868 412.865973 191.02959 412.739825 192.041093 412.582143 192.831317 412.392921 193.400288 410.879144 197.825612 408.151233 201.270991 404.209106 203.736529 400.266979 206.202066 395.709949 207.434817 390.537879 207.434817zM440.019207 156.891546C444.182093 156.891546 447.966478 157.602748 451.372476 159.025174 454.778473 160.447599 457.459079 162.407356 459.414374 164.904503 461.369669 167.401651 462.347302 170.167437 462.347302 173.201945L462.347302 204.969291C462.347302 205.475043 462.189619 205.88596 461.874249 206.202054 461.558879 206.518149 461.148904 206.676194 460.644311 206.676194L448.344937 206.676194C447.840345 206.676194 447.43037 206.518149 447.115 206.202054 446.79963 205.88596 446.641947 205.475043 446.641947 204.969291L446.641947 203.072733C446.641947 202.756639 446.563106 202.566985 446.405421 202.503766 446.247736 202.440547 446.074285 202.535374 445.885062 202.78825 443.362101 205.885977 439.293888 207.434817 433.680299 207.434817 428.697451 207.434817 424.723846 206.24948 421.759367 203.878771 418.794888 201.508061 417.31267 198.015268 417.31267 193.400288 417.31267 188.532431 418.999875 184.770962 422.374336 182.115767 425.748796 179.460573 430.621192 178.132996 436.991669 178.132996L445.979673 178.132996C446.421191 178.132996 446.641947 177.911733 446.641947 177.4692L446.641947 175.857126C446.641947 174.150215 446.090058 172.806833 444.986262 171.82694 443.882467 170.847047 442.321408 170.357108 440.303039 170.357108 438.852336 170.357108 437.606643 170.594175 436.565921 171.068317 435.5252 171.542459 434.784091 172.190443 434.342573 173.012289 434.027203 173.454821 433.727606 173.786716 433.443773 174.007982 433.159939 174.229248 432.797269 174.308271 432.355751 174.245052L419.677935 172.632977C418.542602 172.506539 418.038017 172.064014 418.164165 171.305387 418.479536 168.586973 419.614851 166.137277 421.570146 163.956224 423.525441 161.775172 426.095669 160.052482 429.280907 158.788104 432.466146 157.523726 436.045543 156.891546 440.019207 156.891546zM438.410827 196.150297C440.807641 196.150297 442.778674 195.533921 444.323988 194.301153 445.869302 193.068384 446.641947 191.440521 446.641947 189.417516L446.641947 187.331302C446.641947 186.88877 446.421191 186.667507 445.979673 186.667507L440.49226 186.667507C438.095447 186.667507 436.250559 187.078423 434.957542 187.900269 433.664524 188.722115 433.018025 189.954866 433.018025 191.598557 433.018025 192.989374 433.491073 194.095688 434.437183 194.917534 435.383294 195.73938 436.707829 196.150297 438.410827 196.150297zM499.434645 142.003565C499.434645 141.497814 499.592328 141.086897 499.907698 140.770803 500.223068 140.454708 500.633043 140.296663 501.137636 140.296663L513.43701 140.296663C513.941602 140.296663 514.351577 140.454708 514.666947 140.770803 514.982317 141.086897 515.14 141.497814 515.14 142.003565L515.14 204.969291C515.14 205.475043 514.982317 205.88596 514.666947 206.202054 514.351577 206.518149 513.941602 206.676194 513.43701 206.676194L501.137636 206.676194C500.633043 206.676194 500.223068 206.518149 499.907698 206.202054 499.592328 205.88596 499.434645 205.475043 499.434645 204.969291L499.434645 202.693422C499.434645 202.377327 499.355804 202.187673 499.198119 202.124454 499.040434 202.061236 498.866983 202.156062 498.677761 202.408938 496.280948 205.759541 492.685782 207.434817 487.892156 207.434817 483.792344 207.434817 480.007959 206.075631 476.538887 203.357217 473.069816 200.638804 470.704575 197.130206 469.443095 192.83132 468.43391 189.733593 467.929325 186.09856 467.929325 181.926112 467.929325 177.437569 468.591593 173.454837 469.916147 169.977796 471.36685 166.058223 473.716322 162.88152 476.964635 160.447592 480.212947 158.013664 483.855418 156.796718 487.892156 156.796718 492.685782 156.796718 496.280948 158.250731 498.677761 161.158801 498.866983 161.411677 499.040434 161.506504 499.198119 161.443285 499.355804 161.380066 499.434645 161.190412 499.434645 160.874318L499.434645 142.003565zM497.731655 189.986483C498.803914 187.963478 499.340035 185.371541 499.340035 182.210595 499.340035 178.733555 498.772377 175.951964 497.637044 173.86574 496.31249 171.716297 494.48337 170.641591 492.149631 170.641591 489.689744 170.641591 487.797552 171.747906 486.472997 173.960568 485.337665 176.046792 484.770007 178.796774 484.770007 182.210595 484.770007 185.43476 485.306128 188.058306 486.378387 190.081311 487.702941 192.420411 489.62667 193.589943 492.149631 193.589943 494.546444 193.589943 496.4071 192.388802 497.731655 189.986483zM547.875257 194.064083C549.830552 194.064083 551.643903 193.763798 553.315365 193.163218 554.986827 192.562638 556.390203 191.756609 557.525535 190.745106 557.90398 190.302574 558.313955 190.081311 558.755473 190.081311 559.133917 190.081311 559.512356 190.302574 559.8908 190.745106L565.756655 197.762371C566.135099 198.204903 566.324319 198.61582 566.324319 198.995134 566.324319 199.437666 566.135099 199.848583 565.756655 200.227896 563.612138 202.503777 560.899996 204.273881 557.620146 205.538259 554.340297 206.802637 550.83974 207.434817 547.118373 207.434817 542.829339 207.434817 539.029186 206.660397 535.717799 205.111533 532.406413 203.56267 529.678502 201.397454 527.533985 198.615822 524.064913 194.190498 522.330403 188.564099 522.330403 181.736456 522.330403 178.701948 522.677305 175.857139 523.37112 173.201945 524.758748 168.270869 527.470891 164.303942 531.507629 161.301043 535.544366 158.298145 540.274848 156.796718 545.699214 156.796718 552.006617 156.796718 557.099769 158.756475 560.978821 162.676048 564.857874 166.595621 567.396566 172.063975 568.594972 179.081275 568.847268 180.851404 569.036488 182.779552 569.162636 184.865777 569.162636 186.003717 568.594978 186.572679 567.459645 186.572679L538.887253 186.572679C538.698031 186.572679 538.52458 186.635897 538.366895 186.762335 538.20921 186.888772 538.161905 187.078426 538.224979 187.331302L538.792643 189.22786C539.423383 190.745114 540.527162 191.930451 542.104013 192.783906 543.680863 193.637362 545.604592 194.064083 547.875257 194.064083zM545.415382 170.357108C542.198607 170.357108 540.022586 171.905948 538.887253 175.003675 538.634957 175.635864 538.477274 176.109999 538.4142 176.426093L538.4142 176.615749C538.4142 176.995063 538.634956 177.184717 539.076474 177.184717L552.038122 177.184717C552.290419 177.184717 552.46387 177.105694 552.558481 176.947647 552.653092 176.7896 552.66886 176.61575 552.605786 176.426093L552.227344 175.193331C551.722751 173.676077 550.902801 172.49074 549.767469 171.637284 548.632136 170.783829 547.181455 170.357108 545.415382 170.357108zM631.700223 156.891546C636.619997 156.891546 640.467455 158.408777 643.242712 161.443285 646.017969 164.477793 647.405577 168.745006 647.405577 174.245052L647.405577 204.969291C647.405577 205.475043 647.247895 205.88596 646.932524 206.202054 646.617154 206.518149 646.207179 206.676194 645.702587 206.676194L633.497823 206.676194C632.993231 206.676194 632.583256 206.518149 632.267886 206.202054 631.952516 205.88596 631.794833 205.475043 631.794833 204.969291L631.794833 177.658856C631.794833 175.509413 631.242944 173.755114 630.139148 172.395908 629.035353 171.036701 627.568904 170.357108 625.739757 170.357108 623.91061 170.357108 622.412624 171.020896 621.245755 172.348494 620.078885 173.676091 619.495459 175.446194 619.495459 177.658856L619.495459 204.969291C619.495459 205.475043 619.337776 205.88596 619.022406 206.202054 618.707036 206.518149 618.297061 206.676194 617.792469 206.676194L605.493095 206.676194C604.988502 206.676194 604.578527 206.518149 604.263157 206.202054 603.947787 205.88596 603.790104 205.475043 603.790104 204.969291L603.790104 177.658856C603.790104 175.509413 603.206678 173.755114 602.039809 172.395908 600.872939 171.036701 599.374954 170.357108 597.545807 170.357108 595.842808 170.357108 594.423664 170.89446 593.288331 171.969182 592.152999 173.043904 591.459195 174.466308 591.206899 176.236438L591.206899 204.969291C591.206899 205.475043 591.049216 205.88596 590.733846 206.202054 590.418476 206.518149 590.0085 206.676194 589.503908 206.676194L577.204534 206.676194C576.699942 206.676194 576.289967 206.518149 575.974597 206.202054 575.659227 205.88596 575.501544 205.475043 575.501544 204.969291L575.501544 159.357071C575.501544 158.85132 575.659227 158.440403 575.974597 158.124309 576.289967 157.808214 576.699942 157.650169 577.204534 157.650169L589.503908 157.650169C590.0085 157.650169 590.418476 157.808214 590.733846 158.124309 591.049216 158.440403 591.206899 158.85132 591.206899 159.357071L591.206899 162.676048C591.206899 162.992142 591.28574 163.165992 591.443425 163.197601 591.60111 163.229211 591.774561 163.118579 591.963783 162.865704 594.486744 158.882912 598.460348 156.891546 603.884715 156.891546 606.975342 156.891546 609.703253 157.571139 612.068529 158.930346 614.433805 160.289552 616.278693 162.265114 617.603248 164.857089 617.729396 165.109965 617.87131 165.220597 618.028995 165.188987 618.18668 165.157378 618.328595 165.015137 618.454743 164.762262 621.103852 159.515092 625.518968 156.891546 631.700223 156.891546zM655.447476 225.546946C655.258254 225.546946 655.100571 225.388901 654.974423 225.072806 654.848275 224.756712 654.785202 224.345795 654.785202 223.840044L654.785202 214.357254C654.785202 213.851502 654.848275 213.440585 654.974423 213.124491 655.100571 212.808396 655.226717 212.650351 655.352865 212.650351L655.825918 212.650351C659.862656 212.650351 662.732481 212.302653 664.43548 211.607244 666.138479 210.911836 667.210721 209.426214 667.652239 207.150333 667.715313 206.897457 667.715313 206.612977 667.652239 206.296882L652.703769 159.546727C652.640695 159.35707 652.609159 159.135807 652.609159 158.882932 652.609159 158.061086 653.082207 157.650169 654.028317 157.650169L667.273797 157.650169C667.778389 157.650169 668.204133 157.792409 668.55104 158.076895 668.897947 158.36138 669.102934 158.724883 669.166008 159.167415L675.315696 183.917498C675.441844 184.170373 675.583758 184.296809 675.741443 184.296809 675.899128 184.296809 676.009506 184.170373 676.07258 183.917498L682.033046 159.167415C682.09612 158.724883 682.301108 158.36138 682.648015 158.076895 682.994922 157.792409 683.420665 157.650169 683.925257 157.650169L697.076127 157.650169C697.706867 157.650169 698.148379 157.824018 698.400675 158.171722 698.652971 158.519427 698.684507 158.977757 698.495285 159.546727L682.789931 207.624473C681.21308 212.365891 679.557411 215.953511 677.822876 218.387439 676.08834 220.821368 673.565417 222.62308 670.25403 223.79263 666.942644 224.96218 662.227931 225.546946 656.10975 225.546946L655.447476 225.546946zM35.1292682 138.639011C50.0773545 168.763998 81.1269498 203.013 128.290931 241.130368 179.148737 200.760367 211.510044 166.464082 225.316907 138.639011 238.897473 111.269996 244.546473 69.8732447 241.993903 14.5889078L14.6785239 14.5889078C13.5314466 67.6152123 20.4125374 108.980276 35.1292682 138.639011zM255.776558 0L256.16978 6.87709493C259.660182 67.9210843 253.821646 113.954537 238.349544 145.135578 222.951249 176.167873 187.768231 213.040935 132.73724 256.188311L128.218382 259.731348 123.726179 256.154422C72.5163421 215.378494 38.6351169 178.465709 22.0966315 145.135578 5.5029994 111.69431-1.67991806 65.680922.32889229 7.04413011L.570213839 0 255.776558 0z"/>
    <g transform="translate(53.37 24.315)">
      <path fill="#E61DA4" d="M10.9166043,69.7507854 C4.5819074,67.6996895 0,61.7403569 0,54.7084042 C0,45.979737 7.05976586,38.9037541 15.7684284,38.9037541 C19.2629696,38.9037541 22.492007,40.0431225 25.105931,41.9714469 L61.3254691,20.4025471 C60.8847833,18.9476281 60.6478015,17.4038777 60.6478015,15.8046501 C60.6478015,7.07598287 67.7075674,0 76.4162299,0 C85.1248924,0 92.1846583,7.07598287 92.1846583,15.8046501 C92.1846583,17.5315258 91.9083355,19.1937147 91.3975894,20.7492211 L126.103364,41.4166681 C128.563374,39.8265258 131.493231,38.9037541 134.638119,38.9037541 C143.346782,38.9037541 150.406548,45.979737 150.406548,54.7084042 C150.406548,60.8058963 146.961487,66.096903 141.915857,68.7326944 L141.915855,106.334198 C146.961486,108.969989 150.406548,114.260996 150.406548,120.358489 C150.406548,129.087156 143.346782,136.163139 134.638119,136.163139 C130.536367,136.163139 126.800403,134.593418 123.995581,132.020627 L91.8534521,151.161411 C92.0705499,152.206557 92.1846583,153.289559 92.1846583,154.399274 C92.1846583,163.127941 85.1248924,170.203924 76.4162299,170.203924 C67.7075674,170.203924 60.6478015,163.127941 60.6478015,154.399274 C60.6478015,152.937488 60.8458001,151.522053 61.2163831,150.178442 L29.5518812,131.322087 C26.6835207,134.306481 22.6552565,136.163139 18.1943404,136.163139 C9.48567792,136.163139 2.42591206,129.087156 2.42591206,120.358489 C2.42591206,114.260997 5.87097311,108.96999 10.9166024,106.334199 L10.9166043,69.7507854 Z M18.1943404,70.3271717 L18.1943404,104.553839 C26.903003,104.553839 33.9627688,111.629822 33.9627688,120.358489 C33.9627688,122.107963 33.6791668,123.791046 33.1555286,125.364072 L64.5104779,144.036087 C67.4014866,140.70233 71.6632818,138.594624 76.4162299,138.594624 C81.5196165,138.594624 86.0567542,141.024593 88.9387426,144.793131 L120.01632,126.286292 C119.276885,124.455764 118.869691,122.454788 118.869691,120.358489 C118.869691,111.629822 125.929457,104.553839 134.638119,104.553839 L134.638119,70.5130543 C125.929457,70.5130543 118.869691,63.4370714 118.869691,54.7084042 C118.869691,51.7261639 119.69379,48.9368446 121.12619,46.5567417 L87.8182923,26.721737 C84.9471697,29.7333394 80.9002748,31.6093002 76.4162299,31.6093002 C71.8021496,31.6093002 67.6509412,29.6229576 64.7673678,26.4568843 L29.7165125,47.3298282 C30.8787402,49.532383 31.5368568,52.0433614 31.5368568,54.7084042 C31.5368568,62.6102092 25.751275,69.157615 18.1943404,70.3271717 Z"/>
      <path fill="#00D2FF" d="M83.0051954,120.353436 C80.832835,120.428575 78.6352033,120.466768 76.4162299,120.466768 C74.1972565,120.466768 71.9996248,120.428575 69.8272644,120.353436 C72.0161205,123.034673 74.2202863,125.543131 76.4162299,127.862994 C78.6121693,125.543136 80.8163372,123.034675 83.0051954,120.353436 Z M92.6599729,119.764592 C89.0409227,124.601491 85.3173664,129.029256 81.5676791,132.976102 C93.4804641,144.038102 104.586884,149.033167 110.985477,145.338937 C117.058928,141.832429 118.473339,130.738326 115.50261,116.067336 C108.523926,117.787331 100.831107,119.04469 92.6599729,119.764592 Z M37.32985,116.067336 C34.3591209,130.738326 35.7735321,141.832429 41.846983,145.338937 C48.2455762,149.033167 59.3519957,144.038102 71.2647719,132.976093 C67.5150876,129.029249 63.7915343,124.601487 60.1724869,119.764592 C52.0013528,119.04469 44.3085341,117.787331 37.32985,116.067336 Z M30.3395662,114.114942 C11.9349866,108.322186 0,98.9795647 0,87.8210975 C0,76.4613026 12.3695483,66.9834694 31.342052,61.2171812 C26.3446374,41.1931262 28.1615261,25.0852496 38.2081149,19.2848488 C47.9073491,13.6849933 62.0912987,19.5314786 76.4162299,32.8458165 C90.7411611,19.5314786 104.925111,13.6849933 114.624345,19.2848488 C124.670934,25.0852496 126.487822,41.1931262 121.490408,61.2171812 C140.462911,66.9834694 152.83246,76.4613026 152.83246,87.8210975 C152.83246,98.9795647 140.897473,108.322186 122.492894,114.114942 C126.171587,132.075231 123.92279,146.273182 114.624345,151.641641 C104.925111,157.241497 90.7411611,151.395012 76.4162299,138.080674 C62.0912987,151.395012 47.9073491,157.241497 38.2081149,151.641641 C28.9096701,146.273182 26.6608726,132.075231 30.3395662,114.114942 Z M81.5676878,37.950397 C86.5932924,43.2402502 91.5719569,49.3939919 96.3149874,56.2387946 C102.743285,56.9439388 108.841639,57.9869788 114.488706,59.3294197 C118.708213,42.465187 117.661744,29.4420977 110.985477,25.5875532 C104.586884,21.8933237 93.4804641,26.888388 81.5676878,37.950397 Z M56.5174681,56.2388008 C61.260503,49.393991 66.2391726,43.2402435 71.2647821,37.9503864 C59.3519956,26.888388 48.2455762,21.8933237 41.846983,25.5875532 C35.1707162,29.4420977 34.1242464,42.465187 38.3437542,59.3294197 C43.9908203,57.9869788 50.0891751,56.9439388 56.5174681,56.2388008 Z M66.0004406,55.4605763 C69.4077638,55.2721516 72.8849726,55.1754268 76.4162299,55.1754268 C79.9474871,55.1754268 83.424696,55.2721516 86.8320191,55.4605763 C83.4019832,50.8959459 79.8987669,46.7425569 76.4162299,43.0634964 C72.9337011,46.7425475 69.4304857,50.8959347 66.0004506,55.4605631 Z M88.8082046,112.778815 C92.0800089,108.233611 95.2671966,103.318494 98.2860047,98.0897655 C100.730426,93.8559035 102.941572,89.629244 104.91579,85.4632451 C102.941572,81.2972462 100.730426,77.0705868 98.2860047,72.8367248 C96.3426128,69.4706713 94.3294396,66.2345877 92.2688324,63.1434945 C87.1825681,62.678847 81.8760249,62.4300203 76.4162299,62.4300203 C70.9564349,62.4300203 65.6498917,62.678847 60.5636274,63.1434945 C58.5030202,66.2345877 56.489847,69.4706713 54.5464551,72.8367248 C52.1020337,77.0705868 49.8908883,81.2972462 47.9166694,85.4632451 C49.8908883,89.629244 52.1020337,93.8559035 54.5464551,98.0897655 C57.5652642,103.318496 60.7524531,108.233615 64.0242587,112.77882 C68.0419555,113.062592 72.1830288,113.212175 76.4162299,113.212175 C80.649431,113.212175 84.7905042,113.062592 88.8082085,112.77881 Z M98.2468839,111.841633 C103.777726,111.128698 108.993829,110.157552 113.798793,108.975667 C112.493081,104.243649 110.792217,99.242924 108.703717,94.0835848 C107.391475,96.6162013 106.001054,99.1572178 104.534512,101.697343 C102.506696,105.209623 100.404636,108.596717 98.2468839,111.841633 Z M51.2639665,64.2652132 C47.4434522,64.8423186 43.7902973,65.5438891 40.3386537,66.3531074 C41.413118,69.7484617 42.6773229,73.2573808 44.1287424,76.8429055 C45.4409851,74.310289 46.8314062,71.7692725 48.297948,69.2291475 C49.2702341,67.5450987 50.2595886,65.8898295 51.2639665,64.2652132 Z M39.0336667,108.975667 C43.8386308,110.157552 49.054734,111.128698 54.5855759,111.841633 C52.427824,108.596717 50.3257639,105.209623 48.297948,101.697343 C46.8314062,99.1572178 45.4409851,96.6162013 44.1287424,94.0835848 C42.0402349,99.242947 40.339372,104.243669 39.0336617,108.975685 Z M32.0478949,107.019465 C33.9333236,100.164534 36.5841401,92.8978115 39.9463185,85.4632552 C37.2822823,79.572434 35.0648537,73.7869934 33.3209133,68.2282833 C17.4233936,73.0405394 7.27773618,80.2926826 7.27773618,87.8210975 C7.27773618,95.1465697 16.8837752,102.210464 32.0478949,107.019465 Z M112.493806,66.3531074 C109.042162,65.5438891 105.389008,64.8423186 101.568493,64.2652132 C102.572871,65.8898295 103.562226,67.5450987 104.534512,69.2291475 C106.001054,71.7692725 107.391475,74.310289 108.703717,76.8429055 C110.155136,73.257382 111.419341,69.7484639 112.493808,66.3531027 Z M119.511549,68.2282759 C117.767609,73.7869848 115.550181,79.5724241 112.886142,85.4632341 C116.248317,92.897805 118.899135,100.164531 120.784565,107.019465 C135.948685,102.210464 145.554724,95.1465697 145.554724,87.8210975 C145.554724,80.2926826 135.409066,73.0405394 119.511547,68.2282833 Z M76.4162299,95.3547138 C70.1894813,95.3547138 65.1417042,90.2953415 65.1417042,84.0542894 C65.1417042,77.8132373 70.1894813,72.7538649 76.4162299,72.7538649 C82.6429785,72.7538649 87.6907556,77.8132373 87.6907556,84.0542894 C87.6907556,90.2953415 82.6429785,95.3547138 76.4162299,95.3547138 Z"/>
    </g>
  </g>
</svg>
