<svg xmlns="http://www.w3.org/2000/svg" width="980" height="267" viewBox="0 0 980 267">
  <g fill="none">
    <path fill="#FFF" d="M358.562899 103.378695C357.560415 103.378695 356.858686 102.91422 356.457692 101.985255L344.828929 76.1070853C344.695264 75.7753122 344.427939 75.6094281 344.026945 75.6094281L337.811572 75.6094281C337.343745 75.6094281 337.109836 75.8416658 337.109836 76.3061481L337.109836 101.587129C337.109836 102.117966 336.942758 102.549265 336.608596 102.881038 336.274434 103.212811 335.840031 103.378695 335.305373 103.378695L322.273138 103.378695C321.738479 103.378695 321.304076 103.212811 320.969914 102.881038 320.635753 102.549265 320.468675 102.117966 320.468675 101.587129L320.468675 35.4982648C320.468675 34.9674278 320.635753 34.5361293 320.969914 34.2043563 321.304076 33.8725832 321.738479 33.7066991 322.273138 33.7066991L351.445294 33.7066991C355.856226 33.7066991 359.732442 34.602473 363.074057 36.3940476 366.415673 38.1856221 369.005386 40.723648 370.843274 44.0082014 372.681163 47.2927548 373.600093 51.0583226 373.600093 55.3050179 373.600093 59.6844224 372.514084 63.4997554 370.342034 66.7511315 368.169984 70.0025076 365.145868 72.358061 361.269594 73.8178625 360.801768 74.0169264 360.668105 74.3486945 360.868602 74.8131768L373.700341 101.288535 373.900837 102.084787C373.900837 102.947397 373.366187 103.378695 372.29687 103.378695L358.562899 103.378695zM337.811572 47.8401612C337.343745 47.8401612 337.109836 48.0723988 337.109836 48.5368811L337.109836 62.2722175C337.109836 62.7366998 337.343745 62.9689374 337.811572 62.9689374L348.738599 62.9689374C351.211394 62.9689374 353.216334 62.2888129 354.753477 60.9285433 356.29062 59.5682737 357.05918 57.7601376 357.05918 55.5040807 357.05918 53.1816693 356.29062 51.3237679 354.753477 49.9303211 353.216334 48.5368742 351.211394 47.8401612 348.738599 47.8401612L337.811572 47.8401612zM407.383655 90.1410159C409.455457 90.1410159 411.376857 89.8258362 413.147913 89.1954674 414.918969 88.5650985 416.405966 87.7190899 417.608947 86.6574161 418.009941 86.1929338 418.444345 85.9606961 418.912171 85.9606961 419.313165 85.9606961 419.714152 86.1929338 420.115146 86.6574161L426.33052 94.0227414C426.731514 94.4872237 426.932008 94.9185222 426.932008 95.3166499 426.932008 95.7811322 426.731514 96.2124307 426.33052 96.6105584 424.058221 98.9993244 421.184475 100.857226 417.709195 102.184318 414.233915 103.51141 410.524778 104.174946 406.581672 104.174946 402.037075 104.174946 398.010489 103.362115 394.501793 101.736427 390.993096 100.110739 388.102643 97.8381272 385.830344 94.9185242 382.154567 90.2737012 380.316706 84.3682292 380.316706 77.2019309 380.316706 74.0169095 380.684279 71.0309966 381.419434 68.2441029 382.889745 63.068443 385.763491 58.9047534 390.040758 55.7529093 394.318026 52.6010651 399.330374 51.0251667 405.077952 51.0251667 411.761183 51.0251667 417.157811 53.0821289 421.267998 57.1961149 425.378185 61.310101 428.068145 67.049689 429.337959 74.4150511 429.605288 76.2729802 429.805782 78.2967656 429.939446 80.4864679 429.939446 81.6808509 429.337965 82.2780335 428.134983 82.2780335L397.860099 82.2780335C397.659602 82.2780335 397.475816 82.3443871 397.308735 82.4770963 397.141655 82.6098055 397.091531 82.8088664 397.158364 83.0742849L397.759851 85.0649133C398.428174 86.657424 399.597722 87.9015544 401.26853 88.7973417 402.939338 89.6931289 404.977692 90.1410159 407.383655 90.1410159zM404.777208 65.2581602C401.368761 65.2581602 399.063081 66.8838238 397.860099 70.1351999 397.59277 70.798746 397.425692 71.2963982 397.358859 71.6281712L397.358859 71.8272341C397.358859 72.2253618 397.592769 72.4244226 398.060595 72.4244226L411.794566 72.4244226C412.061895 72.4244226 412.245681 72.3414806 412.345929 72.1755941 412.446178 72.0097075 412.462886 71.8272351 412.396053 71.6281712L411.995062 70.3342627C411.460403 68.741752 410.591596 67.4976217 409.388615 66.6018344 408.185633 65.7060471 406.648513 65.2581602 404.777208 65.2581602zM458.409867 51.1246981C462.820799 51.1246981 466.830677 51.8711763 470.439622 53.3641551 474.048567 54.857134 476.888897 56.9140961 478.960698 59.5351034 481.0325 62.1561106 482.068385 65.0590814 482.068385 68.2441029L482.068385 101.587129C482.068385 102.117966 481.901307 102.549265 481.567145 102.881038 481.232984 103.212811 480.79858 103.378695 480.263922 103.378695L467.231687 103.378695C466.697029 103.378695 466.262625 103.212811 465.928464 102.881038 465.594302 102.549265 465.427224 102.117966 465.427224 101.587129L465.427224 99.596501C465.427224 99.264728 465.343685 99.0656671 465.176604 98.9993125 465.009523 98.9329579 464.825737 99.0324883 464.62524 99.2979068 461.951948 102.549283 457.641329 104.174946 451.693254 104.174946 446.413501 104.174946 442.203129 102.930816 439.062011 100.442518 435.920892 97.9542201 434.350357 94.2881827 434.350357 89.4442959 434.350357 84.3349907 436.138094 80.3869504 439.713622 77.6000566 443.289151 74.8131628 448.451869 73.4197368 455.201932 73.4197368L464.725488 73.4197368C465.193314 73.4197368 465.427224 73.1874992 465.427224 72.7230169L465.427224 71.0309827C465.427224 69.2394081 464.84245 67.8293937 463.672885 66.8008972 462.503319 65.7724007 460.849245 65.2581602 458.710611 65.2581602 457.173468 65.2581602 455.853549 65.5069862 454.750816 66.0046458 453.648083 66.5023054 452.862815 67.18243 452.394989 68.04504 452.060828 68.5095223 451.743379 68.8578788 451.442634 69.0901199 451.141888 69.3223611 450.757608 69.4053031 450.289782 69.3389485L436.856556 67.6469143C435.653574 67.5142051 435.118924 67.0497298 435.252588 66.2534744 435.58675 63.400226 436.789713 60.8290233 438.861515 58.5397891 440.933316 56.250555 443.656692 54.4424189 447.031723 53.1153266 450.406755 51.7882343 454.199431 51.1246981 458.409867 51.1246981zM456.705651 92.3307072C459.245279 92.3307072 461.333757 91.6837594 462.971149 90.3898444 464.60854 89.0959295 465.427224 87.3873238 465.427224 85.2639762L465.427224 83.0742849C465.427224 82.6098026 465.193314 82.3775649 464.725488 82.3775649L458.911107 82.3775649C456.371479 82.3775649 454.416663 82.8088634 453.046601 83.6714734 451.676539 84.5340834 450.991518 85.8279789 450.991518 87.5531989 450.991518 89.0130004 451.492753 90.1741887 452.495237 91.0367987 453.497722 91.8994087 454.901179 92.3307072 456.705651 92.3307072zM514.147732 104.174946C508.667483 104.174946 503.872337 102.814697 499.76215 100.094158 495.651963 97.373619 492.728094 93.6246396 490.990454 88.8471074 489.72064 85.6620859 489.085742 81.8467529 489.085742 77.4009938 489.085742 72.9552346 489.72064 69.1399016 490.990454 65.9548801 492.661261 61.3100572 495.568423 57.6771966 499.712026 55.0561893 503.855629 52.4351821 508.667483 51.1246981 514.147732 51.1246981 519.694814 51.1246981 524.573499 52.4849473 528.783934 55.2054865 532.99437 57.9260256 535.8347 61.3764138 537.305011 65.5567544 537.706005 66.6184283 537.97333 67.713263 538.106995 68.8412914L538.106995 69.2394171C538.106995 70.1020271 537.572344 70.632856 536.503027 70.8319198L523.771536 72.7230169 523.270297 72.8225483C522.401477 72.8225483 521.900242 72.4244266 521.766577 71.6281712L521.365585 70.2347313C520.964592 68.7749298 520.095785 67.5805647 518.759138 66.6516001 517.422492 65.7226355 515.851957 65.2581602 514.047484 65.2581602 510.505372 65.2581602 508.166276 66.8174702 507.030127 69.936137 506.294972 71.7940662 505.9274 74.3155037 505.9274 77.5005252 505.9274 80.3537736 506.261556 82.8420342 506.929879 84.9653819 508.199693 88.3494672 510.572204 90.0414844 514.047484 90.0414844 515.785124 90.0414844 517.272121 89.6101859 518.508519 88.747576 519.744916 87.884966 520.663847 86.6242472 521.265337 84.9653819L521.365585 84.4677248C521.432418 84.1359517 521.683035 83.7875952 522.117445 83.4226448 522.551855 83.0576945 523.002966 82.9083988 523.470793 82.9747534L536.302531 84.9653819C537.505513 85.1644457 538.006748 85.8279819 537.806251 86.9560103 537.672586 88.0176842 537.505508 88.8471044 537.305011 89.4442959 535.701036 94.0891189 532.810582 97.7053911 528.633562 100.293221 524.456543 102.881051 519.627981 104.174946 514.147732 104.174946zM576.802707 63.3670631C576.802707 63.8979 576.635629 64.3291986 576.301467 64.6609716 575.967306 64.9927447 575.532902 65.1586287 574.998244 65.1586287L566.677663 65.1586287C566.209837 65.1586287 565.975927 65.3908664 565.975927 65.8553487L565.975927 83.2733477C565.975927 87.0555607 567.513047 88.9466388 570.587333 88.9466388L573.69502 88.9466388C574.229679 88.9466388 574.664082 89.1125228 574.998244 89.4442959 575.332405 89.776069 575.499483 90.2073675 575.499483 90.7382044L575.499483 101.189004C575.499483 102.250678 574.931417 102.84786 573.795268 102.980569 570.720982 103.113279 568.548965 103.179632 567.279151 103.179632 561.46474 103.179632 557.154121 102.250682 554.347164 100.392752 551.540207 98.5348232 550.103334 95.0844351 550.036502 90.0414844L550.036502 65.8553487C550.036502 65.3908664 549.802592 65.1586287 549.334766 65.1586287L544.422616 65.1586287C543.887958 65.1586287 543.453554 64.9927447 543.119393 64.6609716 542.785231 64.3291986 542.618153 63.8979 542.618153 63.3670631L542.618153 53.7125151C542.618153 53.1816782 542.785231 52.7503797 543.119393 52.4186066 543.453554 52.0868336 543.887958 51.9209495 544.422616 51.9209495L549.334766 51.9209495C549.802592 51.9209495 550.036502 51.6887119 550.036502 51.2242296L550.036502 39.9771788C550.036502 39.4463419 550.20358 39.0150434 550.537742 38.6832703 550.871903 38.3514972 551.306307 38.1856132 551.840965 38.1856132L564.171464 38.1856132C564.706123 38.1856132 565.140526 38.3514972 565.474688 38.6832703 565.808849 39.0150434 565.975927 39.4463419 565.975927 39.9771788L565.975927 51.2242296C565.975927 51.6887119 566.209837 51.9209495 566.677663 51.9209495L574.998244 51.9209495C575.532902 51.9209495 575.967306 52.0868336 576.301467 52.4186066 576.635629 52.7503797 576.802707 53.1816782 576.802707 53.7125151L576.802707 63.3670631zM630.034373 104.174946C624.687789 104.174946 619.99289 103.113289 615.949535 100.989941 611.906181 98.8665933 608.765109 95.8806805 606.526227 92.0321129 604.287345 88.1835453 603.16792 83.7378529 603.16792 78.6949022L603.16792 58.2909606C603.16792 53.2480099 604.287345 48.8189059 606.526227 45.0035156 608.765109 41.1881253 611.906181 38.2188009 615.949535 36.0954533 619.99289 33.9721057 624.687789 32.9104478 630.034373 32.9104478 635.314126 32.9104478 639.992317 33.9223404 644.069088 35.9461562 648.145858 37.9699719 651.303638 40.7402354 653.54252 44.25703 655.781402 47.7738245 656.900827 51.6555112 656.900827 55.9022064 656.900827 57.0302349 656.299345 57.5942406 655.096363 57.5942406L642.064129 57.5942406C640.861147 57.5942406 640.259665 57.3951798 640.259665 56.9970521L640.259665 56.3998635C640.259665 53.8120336 639.340735 51.6057758 637.502846 49.7810239 635.664958 47.9562721 633.175492 47.0439098 630.034373 47.0439098 626.960087 47.0439098 624.487329 48.0392141 622.616024 50.0298525 620.74472 52.0204909 619.809082 54.608282 619.809082 57.7933035L619.809082 79.1925594C619.809082 82.3775808 620.844967 84.9653719 622.916768 86.9560103 624.98857 88.9466487 627.594991 89.941953 630.736109 89.941953 633.676731 89.941953 636.049242 89.162298 637.853714 87.6029646 639.658187 86.0436312 640.560409 83.8705502 640.560409 81.0836564L640.560409 78.4958394C640.560409 78.0313571 640.3265 77.7991194 639.858673 77.7991194L630.635861 77.7991194C630.101203 77.7991194 629.666799 77.6332354 629.332638 77.3014623 628.998476 76.9696893 628.831398 76.5383907 628.831398 76.0075538L628.831398 66.2534744C628.831398 65.7226375 628.998476 65.291339 629.332638 64.9595659 629.666799 64.6277928 630.101203 64.4619088 630.635861 64.4619088L655.096363 64.4619088C655.631022 64.4619088 656.065425 64.6277928 656.399587 64.9595659 656.733748 65.291339 656.900827 65.7226375 656.900827 66.2534744L656.900827 79.1925594C656.900827 84.1691554 655.781402 88.5484942 653.54252 92.3307072 651.303638 96.1129201 648.162566 99.0324794 644.119212 101.089472 640.075857 103.146465 635.380958 104.174946 630.034373 104.174946zM692.08786 51.2242296C694.226494 51.2242296 695.964108 51.5891745 697.300754 52.3190752 698.169574 52.7835575 698.503731 53.5134473 698.303234 54.5087665L696.097779 67.2487886C696.030946 68.1113986 695.596543 68.5426971 694.794555 68.5426971 694.460394 68.5426971 694.193069 68.5095203 693.992572 68.4431657 693.190584 68.2441019 692.188114 68.1445714 690.985133 68.1445714 689.915816 68.1445714 689.11384 68.210925 688.579182 68.3436343 686.50738 68.6090527 684.753059 69.4052962 683.316164 70.7323884 681.879269 72.0594807 681.160833 73.8178516 681.160833 76.0075538L681.160833 101.587129C681.160833 102.117966 680.993755 102.549265 680.659593 102.881038 680.325431 103.212811 679.891028 103.378695 679.35637 103.378695L666.324135 103.378695C665.789476 103.378695 665.355073 103.212811 665.020911 102.881038 664.68675 102.549265 664.519671 102.117966 664.519671 101.587129L664.519671 53.7125151C664.519671 53.1816782 664.68675 52.7503797 665.020911 52.4186066 665.355073 52.0868336 665.789476 51.9209495 666.324135 51.9209495L679.35637 51.9209495C679.891028 51.9209495 680.325431 52.0868336 680.659593 52.4186066 680.993755 52.7503797 681.160833 53.1816782 681.160833 53.7125151L681.160833 55.9022064C681.160833 56.2339795 681.244372 56.4330404 681.411453 56.499395 681.578533 56.5657496 681.728904 56.4662192 681.862568 56.2008007 684.535861 52.88307 687.944257 51.2242296 692.08786 51.2242296zM725.370183 51.1246981C729.781115 51.1246981 733.790993 51.8711763 737.399938 53.3641551 741.008883 54.857134 743.849213 56.9140961 745.921015 59.5351034 747.992816 62.1561106 749.028701 65.0590814 749.028701 68.2441029L749.028701 101.587129C749.028701 102.117966 748.861623 102.549265 748.527462 102.881038 748.1933 103.212811 747.758897 103.378695 747.224238 103.378695L734.192003 103.378695C733.657345 103.378695 733.222941 103.212811 732.88878 102.881038 732.554618 102.549265 732.38754 102.117966 732.38754 101.587129L732.38754 99.596501C732.38754 99.264728 732.304001 99.0656671 732.13692 98.9993125 731.969839 98.9329579 731.786053 99.0324883 731.585556 99.2979068 728.912264 102.549283 724.601645 104.174946 718.65357 104.174946 713.373817 104.174946 709.163445 102.930816 706.022327 100.442518 702.881208 97.9542201 701.310673 94.2881827 701.310673 89.4442959 701.310673 84.3349907 703.09841 80.3869504 706.673938 77.6000566 710.249467 74.8131628 715.412185 73.4197368 722.162248 73.4197368L731.685804 73.4197368C732.153631 73.4197368 732.38754 73.1874992 732.38754 72.7230169L732.38754 71.0309827C732.38754 69.2394081 731.802766 67.8293937 730.633201 66.8008972 729.463635 65.7724007 727.809561 65.2581602 725.670927 65.2581602 724.133784 65.2581602 722.813865 65.5069862 721.711132 66.0046458 720.608399 66.5023054 719.823131 67.18243 719.355305 68.04504 719.021144 68.5095223 718.703695 68.8578788 718.40295 69.0901199 718.102204 69.3223611 717.717924 69.4053031 717.250098 69.3389485L703.816872 67.6469143C702.61389 67.5142051 702.07924 67.0497298 702.212904 66.2534744 702.547066 63.400226 703.750029 60.8290233 705.821831 58.5397891 707.893632 56.250555 710.617008 54.4424189 713.99204 53.1153266 717.367071 51.7882343 721.159748 51.1246981 725.370183 51.1246981zM723.665968 92.3307072C726.205595 92.3307072 728.294074 91.6837594 729.931465 90.3898444 731.568857 89.0959295 732.38754 87.3873238 732.38754 85.2639762L732.38754 83.0742849C732.38754 82.6098026 732.153631 82.3775649 731.685804 82.3775649L725.871423 82.3775649C723.331795 82.3775649 721.376979 82.8088634 720.006917 83.6714734 718.636855 84.5340834 717.951834 85.8279789 717.951834 87.5531989 717.951834 89.0130004 718.453069 90.1741887 719.455553 91.0367987 720.458038 91.8994087 721.861495 92.3307072 723.665968 92.3307072zM805.969542 66.4525372C807.038859 69.7039133 807.57351 73.5192464 807.57351 77.8986509 807.57351 82.6098284 806.871781 86.7901064 805.468303 90.4396101 803.931159 94.5535962 801.441693 97.8878655 797.99983 100.442518 794.557966 102.997171 790.698458 104.274478 786.42119 104.274478 781.341935 104.274478 777.532551 102.748345 774.992923 99.6960325 774.792426 99.430614 774.60864 99.3310836 774.441559 99.3974382 774.274478 99.4637928 774.190939 99.6628537 774.190939 99.9946267L774.190939 119.80138C774.190939 120.332217 774.023861 120.763515 773.689699 121.095288 773.355538 121.427061 772.921134 121.592945 772.386476 121.592945L759.354241 121.592945C758.819583 121.592945 758.385179 121.427061 758.051018 121.095288 757.716856 120.763515 757.549778 120.332217 757.549778 119.80138L757.549778 53.7125151C757.549778 53.1816782 757.716856 52.7503797 758.051018 52.4186066 758.385179 52.0868336 758.819583 51.9209495 759.354241 51.9209495L772.386476 51.9209495C772.921134 51.9209495 773.355538 52.0868336 773.689699 52.4186066 774.023861 52.7503797 774.190939 53.1816782 774.190939 53.7125151L774.190939 56.1012693C774.190939 56.4330423 774.274478 56.6321032 774.441559 56.6984578 774.60864 56.7648124 774.792426 56.665282 774.992923 56.3998635 777.532551 52.883069 781.341935 51.1246981 786.42119 51.1246981 790.76529 51.1246981 794.775168 52.5513009 798.450945 55.4045493 802.126722 58.2577977 804.632896 61.9404235 805.969542 66.4525372zM787.92491 86.2592904C789.127891 84.0695881 789.729373 81.1832057 789.729373 77.6000566 789.729373 74.2159713 789.161307 71.4622961 788.025158 69.3389485 786.621679 66.8838278 784.583324 65.6562859 781.910032 65.6562859 779.370404 65.6562859 777.398881 66.9170046 775.995402 69.4384799 774.859253 71.5618276 774.291187 74.2823259 774.291187 77.6000566 774.291187 81.2495603 774.892669 84.1691196 776.09565 86.3588218 777.499129 88.6148787 779.437237 89.7428902 781.910032 89.7428902 784.516492 89.7428902 786.521431 88.5817019 787.92491 86.2592904zM842.961039 51.1246981C848.173959 51.1246981 852.434455 52.7669502 855.742654 56.0515036 859.050853 59.3360569 860.704928 63.7983378 860.704928 69.4384799L860.704928 101.587129C860.704928 102.117966 860.53785 102.549265 860.203688 102.881038 859.869527 103.212811 859.435123 103.378695 858.900465 103.378695L845.86823 103.378695C845.333572 103.378695 844.899168 103.212811 844.565007 102.881038 844.230845 102.549265 844.063767 102.117966 844.063767 101.587129L844.063767 73.0216111C844.063767 70.6991997 843.445577 68.82471 842.20918 67.3980858 840.972782 65.9714616 839.318707 65.2581602 837.246906 65.2581602 835.175104 65.2581602 833.504322 65.9714616 832.234508 67.3980858 830.964694 68.82471 830.329796 70.6991997 830.329796 73.0216111L830.329796 101.587129C830.329796 102.117966 830.162718 102.549265 829.828557 102.881038 829.494395 103.212811 829.059992 103.378695 828.525333 103.378695L815.493098 103.378695C814.95844 103.378695 814.524037 103.212811 814.189875 102.881038 813.855713 102.549265 813.688635 102.117966 813.688635 101.587129L813.688635 35.4982648C813.688635 34.9674278 813.855713 34.5361293 814.189875 34.2043563 814.524037 33.8725832 814.95844 33.7066991 815.493098 33.7066991L828.525333 33.7066991C829.059992 33.7066991 829.494395 33.8725832 829.828557 34.2043563 830.162718 34.5361293 830.329796 34.9674278 830.329796 35.4982648L830.329796 56.499395C830.329796 56.831168 830.413336 57.0302289 830.580416 57.0965835 830.747497 57.1629381 830.897868 57.0634077 831.031532 56.7979892 833.771657 53.0157763 837.748119 51.1246981 842.961039 51.1246981zM894.588739 32.9104478C899.868491 32.9104478 904.513266 33.9886941 908.523205 36.145219 912.533143 38.3017439 915.640799 41.337422 917.846265 45.2523442 920.051731 49.1672664 921.154448 53.6793124 921.154448 58.7886177L921.154448 79.5906851C921.154448 85.4298911 919.60062 90.4064124 916.492918 94.5203985 913.385215 98.6343845 909.091304 101.454413 903.611055 102.980569 903.210061 103.179633 903.009567 103.445048 903.009567 103.776821L903.009567 110.74402C903.009567 111.274857 902.842489 111.706156 902.508327 112.037929 902.174166 112.369702 901.739762 112.535586 901.205104 112.535586L888.172869 112.535586C887.638211 112.535586 887.203807 112.369702 886.869646 112.037929 886.535484 111.706156 886.368406 111.274857 886.368406 110.74402L886.368406 103.776821C886.368406 103.445048 886.167912 103.179633 885.766918 102.980569 880.286669 101.520768 875.97605 98.7339159 872.834931 94.6199299 869.693813 90.5059439 868.123277 85.4962457 868.123277 79.5906851L868.123277 58.7886177C868.123277 53.6793124 869.225994 49.1672664 871.43146 45.2523442 873.636926 41.337422 876.744582 38.3017439 880.75452 36.145219 884.764459 33.9886941 889.375819 32.9104478 894.588739 32.9104478zM904.513287 57.8928349C904.513287 54.6414588 903.611064 52.0204909 901.806592 50.0298525 900.002119 48.0392141 897.596192 47.0439098 894.588739 47.0439098 891.648117 47.0439098 889.275606 48.0392141 887.471133 50.0298525 885.666661 52.0204909 884.764438 54.6414588 884.764438 57.8928349L884.764438 79.1925594C884.764438 82.4439354 885.666661 85.0649034 887.471133 87.0555418 889.275606 89.0461802 891.648117 90.0414844 894.588739 90.0414844 897.596192 90.0414844 900.002119 89.0461802 901.806592 87.0555418 903.611064 85.0649034 904.513287 82.4439354 904.513287 79.1925594L904.513287 57.8928349zM931.479988 103.378695C930.945329 103.378695 930.510926 103.212811 930.176764 102.881038 929.842603 102.549265 929.675524 102.117966 929.675524 101.587129L929.675524 35.4982648C929.675524 34.9674278 929.842603 34.5361293 930.176764 34.2043563 930.510926 33.8725832 930.945329 33.7066991 931.479988 33.7066991L944.512222 33.7066991C945.046881 33.7066991 945.481284 33.8725832 945.815446 34.2043563 946.149607 34.5361293 946.316686 34.9674278 946.316686 35.4982648L946.316686 88.5485131C946.316686 89.0129954 946.550595 89.2452331 947.018421 89.2452331L978.195537 89.2452331C978.730195 89.2452331 979.164599 89.4111171 979.49876 89.7428902 979.832922 90.0746632 980 90.5059618 980 91.0367987L980 101.587129C980 102.117966 979.832922 102.549265 979.49876 102.881038 979.164599 103.212811 978.730195 103.378695 978.195537 103.378695L931.479988 103.378695zM366.783232 210.566381C365.713915 210.566381 365.045602 210.068729 364.778273 209.07341L362.47257 200.911833C362.405737 200.513705 362.138412 200.314645 361.670586 200.314645L339.014547 200.314645C338.613553 200.314645 338.346228 200.513705 338.212563 200.911833L335.90686 209.07341C335.639531 210.068729 334.971218 210.566381 333.901901 210.566381L319.766939 210.566381C319.098616 210.566381 318.630797 210.383909 318.363467 210.018958 318.096138 209.654008 318.062723 209.172944 318.263219 208.575753L339.315291 142.387357C339.649452 141.392037 340.351181 140.894385 341.420498 140.894385L359.164387 140.894385C360.300536 140.894385 361.002265 141.392037 361.269594 142.387357L382.421914 208.575753C382.488746 208.708462 382.522161 208.9407 382.522161 209.272473 382.522161 210.135083 381.987511 210.566381 380.918194 210.566381L366.783232 210.566381zM342.32273 186.977434C342.32273 187.375562 342.523224 187.574623 342.924217 187.574623L357.760915 187.574623C358.028245 187.574623 358.212031 187.491681 358.312279 187.325794 358.412528 187.159907 358.429236 186.977435 358.362403 186.778371L350.743558 160.303013C350.676726 159.97124 350.559771 159.805356 350.39269 159.805356 350.22561 159.805356 350.075239 159.97124 349.941575 160.303013L342.32273 186.778371 342.32273 186.977434zM413.198037 211.362633C407.717788 211.362633 402.922642 210.002383 398.812455 207.281844 394.702268 204.561305 391.778398 200.812326 390.040758 196.034793 388.770945 192.849772 388.136047 189.034439 388.136047 184.58868 388.136047 180.142921 388.770945 176.327588 390.040758 173.142566 391.711566 168.497743 394.618728 164.864883 398.762331 162.243875 402.905934 159.622868 407.717788 158.312384 413.198037 158.312384 418.745119 158.312384 423.623804 159.672633 427.834239 162.393173 432.044675 165.113712 434.885005 168.5641 436.355316 172.744441 436.75631 173.806114 437.023635 174.900949 437.157299 176.028977L437.157299 176.427103C437.157299 177.289713 436.622649 177.820542 435.553332 178.019606L422.821841 179.910703 422.320601 180.010234C421.451781 180.010234 420.950547 179.612113 420.816882 178.815857L420.41589 177.422417C420.014896 175.962616 419.146089 174.768251 417.809443 173.839286 416.472797 172.910322 414.902261 172.445846 413.097789 172.445846 409.555677 172.445846 407.216581 174.005156 406.080432 177.123823 405.345277 178.981752 404.977704 181.50319 404.977704 184.688211 404.977704 187.54146 405.311861 190.02972 405.980184 192.153068 407.249998 195.537153 409.622509 197.229171 413.097789 197.229171 414.835429 197.229171 416.322426 196.797872 417.558823 195.935262 418.795221 195.072652 419.714151 193.811933 420.315642 192.153068L420.41589 191.655411C420.482722 191.323638 420.73334 190.975281 421.16775 190.610331 421.60216 190.245381 422.053271 190.096085 422.521097 190.16244L435.352836 192.153068C436.555818 192.352132 437.057052 193.015668 436.856556 194.143696 436.722891 195.20537 436.555813 196.03479 436.355316 196.631982 434.75134 201.276805 431.860886 204.893077 427.683867 207.480907 423.506848 210.068737 418.678286 211.362633 413.198037 211.362633zM465.62772 158.312384C470.038652 158.312384 474.04853 159.058862 477.657475 160.551841 481.26642 162.04482 484.10675 164.101782 486.178552 166.722789 488.250353 169.343797 489.286238 172.246767 489.286238 175.431789L489.286238 208.774816C489.286238 209.305652 489.11916 209.736951 488.784999 210.068724 488.450837 210.400497 488.016434 210.566381 487.481775 210.566381L474.44954 210.566381C473.914882 210.566381 473.480478 210.400497 473.146317 210.068724 472.812155 209.736951 472.645077 209.305652 472.645077 208.774816L472.645077 206.784187C472.645077 206.452414 472.561538 206.253353 472.394457 206.186999 472.227376 206.120644 472.04359 206.220174 471.843093 206.485593 469.169801 209.736969 464.859182 211.362633 458.911107 211.362633 453.631354 211.362633 449.420982 210.118502 446.279864 207.630204 443.138745 205.141906 441.56821 201.475869 441.56821 196.631982 441.56821 191.522677 443.355947 187.574636 446.931475 184.787743 450.507004 182.000849 455.669722 180.607423 462.419785 180.607423L471.943341 180.607423C472.411167 180.607423 472.645077 180.375185 472.645077 179.910703L472.645077 178.218669C472.645077 176.427094 472.060303 175.01708 470.890738 173.988583 469.721172 172.960087 468.067098 172.445846 465.928464 172.445846 464.391321 172.445846 463.071402 172.694672 461.968669 173.192332 460.865936 173.689992 460.080668 174.370116 459.612842 175.232726 459.278681 175.697208 458.961232 176.045565 458.660487 176.277806 458.359741 176.510047 457.975461 176.592989 457.507635 176.526635L444.074409 174.8346C442.871427 174.701891 442.336777 174.237416 442.470441 173.44116 442.804603 170.587912 444.007566 168.016709 446.079368 165.727475 448.151169 163.438241 450.874545 161.630105 454.249576 160.303013 457.624608 158.97592 461.417285 158.312384 465.62772 158.312384zM463.923505 199.518393C466.463132 199.518393 468.551611 198.871445 470.189002 197.577531 471.826394 196.283616 472.645077 194.57501 472.645077 192.451662L472.645077 190.261971C472.645077 189.797489 472.411167 189.565251 471.943341 189.565251L466.12896 189.565251C463.589332 189.565251 461.634516 189.99655 460.264454 190.859159 458.894392 191.721769 458.209371 193.015665 458.209371 194.740885 458.209371 196.200686 458.710606 197.361875 459.71309 198.224485 460.715575 199.087095 462.119032 199.518393 463.923505 199.518393zM528.583438 142.685951C528.583438 142.155114 528.750517 141.723815 529.084678 141.392042 529.41884 141.060269 529.853243 140.894385 530.387902 140.894385L543.420136 140.894385C543.954795 140.894385 544.389198 141.060269 544.72336 141.392042 545.057521 141.723815 545.2246 142.155114 545.2246 142.685951L545.2246 208.774816C545.2246 209.305652 545.057521 209.736951 544.72336 210.068724 544.389198 210.400497 543.954795 210.566381 543.420136 210.566381L530.387902 210.566381C529.853243 210.566381 529.41884 210.400497 529.084678 210.068724 528.750517 209.736951 528.583438 209.305652 528.583438 208.774816L528.583438 206.386061C528.583438 206.054288 528.499899 205.855228 528.332819 205.788873 528.165738 205.722518 527.981952 205.822049 527.781455 206.087467 525.241827 209.604262 521.432443 211.362633 516.353187 211.362633 512.009087 211.362633 507.999209 209.93603 504.323432 207.082781 500.647655 204.229533 498.141481 200.546907 496.804835 196.034793 495.735518 192.783417 495.200868 188.968084 495.200868 184.58868 495.200868 179.877502 495.902597 175.697224 497.306075 172.047721 498.843218 167.933735 501.332684 164.599465 504.774548 162.044813 508.216412 159.49016 512.07592 158.212853 516.353187 158.212853 521.432443 158.212853 525.241827 159.738986 527.781455 162.791298 527.981952 163.056717 528.165738 163.156247 528.332819 163.089893 528.499899 163.023538 528.583438 162.824477 528.583438 162.492704L528.583438 142.685951zM526.778975 193.048851C527.915124 190.925503 528.48319 188.205005 528.48319 184.887274 528.48319 181.23777 527.881709 178.318211 526.678727 176.128509 525.275249 173.872452 523.337141 172.744441 520.864346 172.744441 518.257886 172.744441 516.252946 173.905629 514.849468 176.22804 513.646486 178.417743 513.045005 181.304125 513.045005 184.887274 513.045005 188.271359 513.613071 191.025035 514.74922 193.148382 516.152698 195.603503 518.191053 196.831045 520.864346 196.831045 523.403973 196.831045 525.375497 195.570326 526.778975 193.048851zM579.910394 197.328702C581.982195 197.328702 583.903595 197.013522 585.674651 196.383153 587.445708 195.752785 588.932704 194.906776 590.135686 193.845102 590.536679 193.38062 590.971083 193.148382 591.438909 193.148382 591.839903 193.148382 592.240891 193.38062 592.641885 193.845102L598.857258 201.210427C599.258252 201.67491 599.458746 202.106208 599.458746 202.504336 599.458746 202.968818 599.258252 203.400117 598.857258 203.798244 596.58496 206.187011 593.711213 208.044912 590.235934 209.372004 586.760654 210.699096 583.051516 211.362633 579.10841 211.362633 574.563813 211.362633 570.537227 210.549801 567.028531 208.924113 563.519835 207.298425 560.629381 205.025813 558.357082 202.10621 554.681306 197.461387 552.843445 191.555915 552.843445 184.389617 552.843445 181.204596 553.211017 178.218683 553.946172 175.431789 555.416483 170.256129 558.290229 166.09244 562.567497 162.940595 566.844764 159.788751 571.857112 158.212853 577.604691 158.212853 584.287921 158.212853 589.684549 160.269815 593.794736 164.383801 597.904923 168.497787 600.594883 174.237375 601.864697 181.602737 602.132026 183.460666 602.33252 185.484452 602.466185 187.674154 602.466185 188.868537 601.864703 189.46572 600.661721 189.46572L570.386838 189.46572C570.186341 189.46572 570.002555 189.532073 569.835474 189.664782 569.668393 189.797492 569.61827 189.996552 569.685102 190.261971L570.28659 192.252599C570.954913 193.84511 572.12446 195.08924 573.795268 195.985028 575.466076 196.880815 577.504431 197.328702 579.910394 197.328702zM577.303947 172.445846C573.895499 172.445846 571.589819 174.07151 570.386838 177.322886 570.119508 177.986432 569.95243 178.484084 569.885598 178.815857L569.885598 179.01492C569.885598 179.413048 570.119507 179.612109 570.587333 179.612109L584.321304 179.612109C584.588633 179.612109 584.772419 179.529167 584.872668 179.36328 584.972916 179.197394 584.989624 179.014921 584.922792 178.815857L584.5218 177.521949C583.987141 175.929438 583.118334 174.685308 581.915353 173.78952 580.712371 172.893733 579.175251 172.445846 577.303947 172.445846zM668.730086 158.312384C673.943006 158.312384 678.019715 159.904871 680.960337 163.089893 683.900958 166.274914 685.371247 170.753783 685.371247 176.526635L685.371247 208.774816C685.371247 209.305652 685.204169 209.736951 684.870007 210.068724 684.535846 210.400497 684.101442 210.566381 683.566784 210.566381L670.634797 210.566381C670.100139 210.566381 669.665735 210.400497 669.331574 210.068724 668.997412 209.736951 668.830334 209.305652 668.830334 208.774816L668.830334 180.109766C668.830334 177.853709 668.24556 176.012396 667.075994 174.585772 665.906429 173.159148 664.352601 172.445846 662.414464 172.445846 660.476327 172.445846 658.889084 173.142559 657.652686 174.536006 656.416289 175.929453 655.798099 177.787354 655.798099 180.109766L655.798099 208.774816C655.798099 209.305652 655.631021 209.736951 655.296859 210.068724 654.962698 210.400497 654.528294 210.566381 653.993636 210.566381L640.961401 210.566381C640.426743 210.566381 639.992339 210.400497 639.658178 210.068724 639.324016 209.736951 639.156938 209.305652 639.156938 208.774816L639.156938 180.109766C639.156938 177.853709 638.538748 176.012396 637.30235 174.585772 636.065953 173.159148 634.478709 172.445846 632.540572 172.445846 630.7361 172.445846 629.232396 173.009852 628.029414 174.13788 626.826433 175.265909 626.091288 176.758865 625.823959 178.616794L625.823959 208.774816C625.823959 209.305652 625.656881 209.736951 625.322719 210.068724 624.988558 210.400497 624.554154 210.566381 624.019496 210.566381L610.987261 210.566381C610.452603 210.566381 610.018199 210.400497 609.684038 210.068724 609.349876 209.736951 609.182798 209.305652 609.182798 208.774816L609.182798 160.900201C609.182798 160.369364 609.349876 159.938066 609.684038 159.606293 610.018199 159.27452 610.452603 159.108636 610.987261 159.108636L624.019496 159.108636C624.554154 159.108636 624.988558 159.27452 625.322719 159.606293 625.656881 159.938066 625.823959 160.369364 625.823959 160.900201L625.823959 164.383801C625.823959 164.715574 625.907498 164.898047 626.074579 164.931224 626.24166 164.964401 626.425446 164.848282 626.625943 164.582864 629.299235 160.402523 633.509607 158.312384 639.257186 158.312384 642.531969 158.312384 645.422423 159.025686 647.928634 160.45231 650.434846 161.878934 652.389661 163.952485 653.79314 166.673024 653.926804 166.938442 654.077175 167.054561 654.244256 167.021384 654.411336 166.988206 654.561707 166.838911 654.695371 166.573492 657.502328 161.066059 662.18052 158.312384 668.730086 158.312384zM693.892324 230.373134C693.691827 230.373134 693.524748 230.20725 693.391084 229.875477 693.257419 229.543704 693.190588 229.112406 693.190588 228.581569L693.190588 218.628426C693.190588 218.09759 693.257419 217.666291 693.391084 217.334518 693.524748 217.002745 693.658411 216.836861 693.792076 216.836861L694.293315 216.836861C698.570583 216.836861 701.611407 216.471916 703.41588 215.742015 705.220352 215.012114 706.356484 213.452804 706.82431 211.064038 706.891143 210.79862 706.891143 210.500029 706.82431 210.168256L690.985133 161.099264C690.9183 160.9002 690.884885 160.667963 690.884885 160.402544 690.884885 159.539934 691.38612 159.108636 692.388604 159.108636L706.423319 159.108636C706.957977 159.108636 707.409088 159.257931 707.776666 159.556527 708.144244 159.855123 708.361445 160.236656 708.428278 160.701138L714.944395 186.67884C715.07806 186.944258 715.22843 187.076965 715.395511 187.076965 715.562592 187.076965 715.679546 186.944258 715.746379 186.67884L722.062 160.701138C722.128833 160.236656 722.346034 159.855123 722.713612 159.556527 723.08119 159.257931 723.532301 159.108636 724.066959 159.108636L738.001426 159.108636C738.669749 159.108636 739.137568 159.291108 739.404897 159.656058 739.672226 160.021009 739.705642 160.502073 739.505145 161.099264L722.863984 211.561695C721.193176 216.538291 719.438854 220.303859 717.600966 222.858512 715.763078 225.413165 713.089825 227.304243 709.581129 228.531803 706.072433 229.759363 701.076793 230.373134 694.594059 230.373134L693.892324 230.373134zM261.880764 1.13686838e-13L262.28337 7.05608582C265.857071 69.6888737 259.879197 116.920444 244.037847 148.913038 228.272066 180.753013 192.249392 218.585775 135.905065 262.856152L131.278363 266.491404 126.678951 262.821381C74.2469724 220.984174 39.5571587 183.110655 22.6239761 148.913038 5.63433058 114.60139-1.72000994 67.3904064.336741432 7.22746844L.583822212 1.13686838e-13 261.880764 1.13686838e-13z"/>
    <g transform="translate(54.644 24.948)">
      <path fill="#E61DA4" d="M11.1771332,71.5661966 C4.69125637,69.4617167 0,63.3472799 0,56.1323058 C0,47.1764566 7.22824987,39.9163063 16.144748,39.9163063 C19.7226877,39.9163063 23.0287873,41.0853292 25.7050936,43.0638423 L62.7890249,20.9335664 C62.3378219,19.44078 62.0951845,17.8568503 62.0951845,16.2159994 C62.0951845,7.26015025 69.3234343,0 78.2399324,0 C87.1564305,0 94.3846804,7.26015025 94.3846804,16.2159994 C94.3846804,17.9878208 94.1017631,19.6932716 93.5788278,21.2892634 L129.112869,42.4946242 C131.631588,40.8630951 134.631367,39.9163063 137.851309,39.9163063 C146.767808,39.9163063 153.996057,47.1764566 153.996057,56.1323058 C153.996057,62.388498 150.468779,67.8172143 145.302734,70.5216077 L145.302732,109.10177 C150.468778,111.806163 153.996057,117.23488 153.996057,123.491073 C153.996057,132.446922 146.767808,139.707072 137.851309,139.707072 C133.651667,139.707072 129.826543,138.096495 126.954783,135.456742 L94.0455698,155.095706 C94.2678488,156.168053 94.3846804,157.279243 94.3846804,158.417841 C94.3846804,167.37369 87.1564305,174.63384 78.2399324,174.63384 C69.3234343,174.63384 62.0951845,167.37369 62.0951845,158.417841 C62.0951845,156.918009 62.2979083,155.465734 62.6773355,154.087153 L30.2571481,134.740021 C27.3203331,137.80209 23.1959329,139.707072 18.6285553,139.707072 C9.71205725,139.707072 2.48380738,132.446922 2.48380738,123.491073 C2.48380738,117.23488 6.01108613,111.806164 11.1771313,109.101771 L11.1771332,71.5661966 Z M18.6285553,72.1575846 L18.6285553,107.275073 C27.5450534,107.275073 34.7733033,114.535223 34.7733033,123.491073 C34.7733033,125.28608 34.482933,127.012969 33.9467979,128.626936 L66.0500451,147.78493 C69.0100488,144.364405 73.3735534,142.201841 78.2399324,142.201841 C83.4651133,142.201841 88.1105315,144.695056 91.0612997,148.561677 L122.880555,129.573159 C122.123473,127.694988 121.706562,125.641932 121.706562,123.491073 C121.706562,114.535223 128.934811,107.275073 137.851309,107.275073 L137.851309,72.3483052 C128.934811,72.3483052 121.706562,65.088155 121.706562,56.1323058 C121.706562,53.0724464 122.550329,50.2105291 124.016913,47.768479 L89.9141094,27.4172266 C86.9744664,30.5072123 82.8309907,32.4319989 78.2399324,32.4319989 C73.5157353,32.4319989 69.2654567,30.3939576 66.3130658,27.1454805 L30.4257085,48.5616868 C31.6156732,50.8215677 32.2894959,53.3978996 32.2894959,56.1323058 C32.2894959,64.2397719 26.365839,70.9575878 18.6285553,72.1575846 Z"/>
      <path fill="#00D2FF" d="M84.9883603,123.485811 C82.7634347,123.562957 80.5126163,123.60217 78.2399324,123.60217 C75.9672485,123.60217 73.7164301,123.562957 71.4915046,123.485811 C73.733307,126.227631 75.9908163,128.792425 78.2399324,131.164024 C80.4890441,128.79243 82.7465556,126.227634 84.9883603,123.485811 Z M94.9015218,122.879051 C91.1917973,127.831707 87.3745842,132.364414 83.5303452,136.403562 C95.7166658,147.690585 107.078407,152.777236 113.634188,148.992254 C119.855488,145.400385 121.32175,134.065575 118.30874,119.075968 C111.158948,120.844893 103.275791,122.138262 94.9015218,122.879051 Z M38.1711249,119.075968 C35.1581145,134.065575 36.6243773,145.400385 42.8456773,148.992254 C49.4014575,152.777236 60.763199,147.690585 72.9495105,136.403552 C69.1052746,132.364406 65.2880646,127.831703 61.5783431,122.879051 C53.2040738,122.138262 45.3209165,120.844893 38.1711249,119.075968 Z M31.0014891,117.065402 C12.1929586,111.120415 0,101.543126 0,90.1068267 C0,78.4645089 12.6362132,68.7487838 32.0243705,62.8305113 C26.9373836,42.3509323 28.822196,25.8752576 39.1199662,19.9298372 C49.0605118,14.1906605 63.5791001,20.1467761 78.2399324,33.740311 C92.9007648,20.1467761 107.419353,14.1906605 117.359899,19.9298372 C127.657669,25.8752576 129.542481,42.3509323 124.455494,62.8305113 C143.843652,68.7487838 156.479865,78.4645089 156.479865,90.1068267 C156.479865,101.543126 144.286906,111.120415 125.478376,117.065402 C129.213863,135.4275 126.888257,149.944175 117.359899,155.445375 C107.419353,161.184552 92.9007648,155.228436 78.2399324,141.634901 C63.5791001,155.228436 49.0605118,161.184552 39.1199662,155.445375 C29.591608,149.944175 27.2660019,135.4275 31.0014891,117.065402 Z M83.5303544,38.9716602 C88.685708,44.3884001 93.792457,50.6927743 98.6565401,57.7072553 C105.242774,58.4329215 111.490305,59.5058235 117.274551,60.8863568 C121.566806,43.6461389 120.47559,30.3328439 113.634188,26.3829581 C107.078407,22.5979766 95.7166658,27.684628 83.5303544,38.9716602 Z M57.8233202,57.7072619 C62.687408,50.6927734 67.7941623,44.3883931 72.9495211,38.971649 C60.763199,27.684628 49.4014575,22.5979766 42.8456773,26.3829581 C36.0042744,30.3328439 34.9130585,43.6461389 39.2053137,60.8863568 C44.9895594,59.5058235 51.2370904,58.4329215 57.8233202,57.7072619 Z M67.5591611,56.9049646 C71.0530452,56.7110372 74.6187329,56.6114836 78.2399324,56.6114836 C81.861132,56.6114836 85.4268196,56.7110372 88.9207037,56.9049646 C85.4036061,52.2297652 81.8111887,47.9769289 78.2399324,44.2111882 C74.6686848,47.9769191 71.0762684,52.2297534 67.5591716,56.9049506 Z M90.9509501,115.712471 C94.3097268,111.050742 97.5811879,106.008178 100.678914,100.642758 C103.18689,96.2988171 105.454653,91.9620655 107.478486,87.6876063 C105.454653,83.413147 103.18689,79.0763955 100.678914,74.7324541 C98.6853299,71.2794649 96.6197892,67.9601937 94.5053268,64.7900956 C89.2871856,64.3113238 83.8423602,64.0548932 78.2399324,64.0548932 C72.6375046,64.0548932 67.1926792,64.3113238 61.974538,64.7900956 C59.8600756,67.9601937 57.7945349,71.2794649 55.8009506,74.7324541 C53.2929749,79.0763955 51.0252121,83.413147 49.0013792,87.6876063 C51.0252121,91.9620655 53.2929749,96.2988171 55.8009506,100.642758 C58.8986781,106.00818 62.1701405,111.050746 65.5289185,115.712476 C69.6497893,116.004704 73.8975193,116.15876 78.2399324,116.15876 C82.5823455,116.15876 86.8300756,116.004704 90.9509542,115.712465 Z M100.64107,114.746147 C106.306632,114.012517 111.649131,113.013667 116.569625,111.798423 C115.237251,106.950273 113.499184,101.826298 111.36305,96.5395581 C110.018365,99.1357361 108.59333,101.740477 107.090052,104.34423 C105.010522,107.946082 102.854495,111.419212 100.64107,114.746147 Z M52.4278949,65.9468703 C48.5168076,66.5404631 44.7773507,67.2617471 41.2445215,68.0934521 C42.3415582,71.5704163 43.6331744,75.163777 45.1168147,78.8356545 C46.4614994,76.2394764 47.886535,73.6347359 49.389813,71.0309821 C50.3856631,69.3061191 51.3990563,67.6107755 52.4278949,65.9468703 Z M39.9102395,111.798423 C44.8307342,113.013667 50.1732332,114.012517 55.8387945,114.746147 C53.6253702,111.419212 51.4693428,107.946082 49.389813,104.34423 C47.886535,101.740477 46.4614994,99.1357361 45.1168147,96.5395581 C42.9806811,101.826298 41.2426138,106.950273 39.9102395,111.798423 Z M32.7458296,109.783614 C34.6709483,102.757445 37.3824918,95.3085432 40.8250985,87.6876169 C38.0979738,81.6505387 35.8296105,75.7214223 34.0475344,70.0248871 C17.8100324,74.9624886 7.45142213,82.3933247 7.45142213,90.1068267 C7.45142213,97.6121597 17.2584683,104.849878 32.7458367,109.783587 Z M115.235343,68.0934521 C111.702514,67.2617471 107.963057,66.5404631 104.05197,65.9468703 C105.080809,67.6107755 106.094202,69.3061191 107.090052,71.0309821 C108.59333,73.6347359 110.018365,76.2394764 111.36305,78.8356545 C112.84669,75.163777 114.138307,71.5704163 115.235343,68.0934521 Z M122.432329,70.0248925 C120.650254,75.7214224 118.381893,81.650533 115.654767,87.6875946 C119.097366,95.3085269 121.808909,102.757423 123.734028,109.783588 C139.221397,104.849878 149.028443,97.6121597 149.028443,90.1068267 C149.028443,82.3933246 138.669832,74.9624886 122.432326,70.0249003 Z M78.2399324,97.8365213 C71.8645801,97.8365213 66.6963358,92.6454681 66.6963358,86.2419795 C66.6963358,79.8384908 71.8645801,74.6474376 78.2399324,74.6474376 C84.6152848,74.6474376 89.783529,79.8384908 89.783529,86.2419795 C89.783529,92.6454681 84.6152848,97.8365213 78.2399324,97.8365213 Z"/>
    </g>
  </g>
</svg>
