<svg xmlns="http://www.w3.org/2000/svg" width="648" height="491" viewBox="0 0 648 491">
  <g fill="none">
    <path fill="#267280" d="M37.6648733 69.8645796C36.6814697 69.8645796 35.9930975 69.4043098 35.599736 68.4837564L24.1923109 42.8398959C24.0611904 42.5111268 23.7989534 42.3467447 23.4055919 42.3467447L17.3085198 42.3467447C16.8495981 42.3467447 16.6201407 42.5768796 16.6201407 43.0371564L16.6201407 68.0892354C16.6201407 68.615266 16.4562426 69.0426594 16.1284414 69.3714284 15.8006402 69.7001975 15.374505 69.8645796 14.850023 69.8645796L2.06583966 69.8645796C1.54135772 69.8645796 1.11522253 69.7001975.787421322 69.3714284.459620109 69.0426594.295721962 68.615266.295721962 68.0892354L.295721962 2.598761C.295721962 2.07273046.459620109 1.64533706.787421322 1.31656798 1.11522253.987798893 1.54135772.823416816 2.06583966.823416816L30.6827424.823416816C35.0097184.823416816 38.8121555 1.71108003 42.0901676 3.48643309 45.3681797 5.26178616 47.908601 7.77683194 49.7115077 11.0316459 51.5144143 14.2864598 52.4158542 18.017933 52.4158542 22.2261773 52.4158542 26.5659292 51.3505162 30.346717 49.2198083 33.568654 47.0891004 36.7905911 44.122544 39.1248166 40.3200499 40.5714005 39.8611282 40.768662 39.7300097 41.0974261 39.9266904 41.5577029L52.514194 67.7933447 52.7108738 68.5823866C52.7108738 69.4371862 52.1863997 69.8645796 51.1374358 69.8645796L37.6648733 69.8645796zM17.3085198 14.8289098C16.8495981 14.8289098 16.6201407 15.0590447 16.6201407 15.5193215L16.6201407 29.1302936C16.6201407 29.5905703 16.8495981 29.8207052 17.3085198 29.8207052L28.0275659 29.8207052C30.4532949 29.8207052 32.4200726 29.1467387 33.9279582 27.7987854 35.4358438 26.4508322 36.1897753 24.6590675 36.1897753 22.4234377 36.1897753 20.1220541 35.4358438 18.2809749 33.9279582 16.9001447 32.4200726 15.5193146 30.4532949 14.8289098 28.0275659 14.8289098L17.3085198 14.8289098zM85.556391 56.7467587C87.5887586 56.7467587 89.4735873 56.4344327 91.2109337 55.8097715 92.9482801 55.1851102 94.4069736 54.3467616 95.587058 53.2947005 95.9804195 52.8344238 96.4065546 52.6042889 96.8654763 52.6042889 97.2588378 52.6042889 97.6521933 52.8344238 98.0455548 53.2947005L104.142627 60.5933377C104.535988 61.0536145 104.732666 61.4810079 104.732666 61.8755308 104.732666 62.3358075 104.535988 62.7632009 104.142627 63.1577238 101.913579 65.5248612 99.0945305 67.3659405 95.6853979 68.6810168 92.2762653 69.9960932 88.6377264 70.6536215 84.7696721 70.6536215 80.3115756 70.6536215 76.3616302 69.8481493 72.9197175 68.2371808 69.4778048 66.6262122 66.6423668 64.3741778 64.4133186 61.4810098 60.8075052 56.8782426 59.0046256 51.0262407 59.0046256 43.9248284 59.0046256 40.7686452 59.3652015 37.8097678 60.0863642 35.0481075 61.5286895 29.9193098 64.3477377 25.7933196 68.5435932 22.6700133 72.7394487 19.546707 77.6563931 17.9850773 83.294574 17.9850773 89.8505982 17.9850773 95.1445084 20.023415 99.1764633 24.1001517 103.208418 28.1768884 105.847178 33.8645082 107.092823 41.1631819 107.355064 43.0042888 107.551742 45.0097502 107.682862 47.1796261 107.682862 48.3631948 107.092829 48.9549703 105.912745 48.9549703L76.2141032 48.9549703C76.0174225 48.9549703 75.8371345 49.0207231 75.6732339 49.1522308 75.5093333 49.2837384 75.4601639 49.4809969 75.5257241 49.7440122L76.1157633 51.7166168C76.7713658 53.2947084 77.9186528 54.527574 79.5576588 55.4152505 81.1966649 56.3029271 83.1962223 56.7467587 85.556391 56.7467587zM82.9995544 32.0892005C79.655982 32.0892005 77.3941876 33.7001449 76.2141032 36.9220819 75.9518622 37.5796201 75.7879641 38.0727663 75.7224038 38.4015354L75.7224038 38.5987959C75.7224038 38.9933188 75.9518612 39.1905773 76.4107829 39.1905773L89.8833454 39.1905773C90.1455864 39.1905773 90.3258743 39.1083862 90.4242147 38.9440017 90.5225551 38.7796172 90.5389449 38.5987969 90.4733846 38.4015354L90.0800252 37.1193424C89.5555432 35.5412508 88.7032729 34.3083852 87.5231885 33.4207087 86.3431041 32.5330321 84.8352412 32.0892005 82.9995544 32.0892005zM135.611386 18.0837075C139.938362 18.0837075 143.871917 18.8234269 147.412171 20.3028877 150.952424 21.7823486 153.738692 23.8206864 155.77106 26.4179622 157.803427 29.0152379 158.819596 31.8919243 158.819596 35.0481075L158.819596 68.0892354C158.819596 68.615266 158.655698 69.0426594 158.327896 69.3714284 158.000095 69.7001975 157.57396 69.8645796 157.049478 69.8645796L144.265295 69.8645796C143.740813 69.8645796 143.314678 69.7001975 142.986876 69.3714284 142.659075 69.0426594 142.495177 68.615266 142.495177 68.0892354L142.495177 66.1166308C142.495177 65.7878617 142.413228 65.5906032 142.249327 65.5248494 142.085427 65.4590956 141.905139 65.5577248 141.708458 65.8207401 139.086048 69.0426771 134.857476 70.6536215 129.022614 70.6536215 123.843355 70.6536215 119.713122 69.4207559 116.631791 66.9549877 113.550459 64.4892196 112.009817 60.8563757 112.009817 56.056347 112.009817 50.9933031 113.763527 47.0810097 117.271 44.3193494 120.778473 41.5576891 125.842926 40.1768796 132.46451 40.1768796L141.806798 40.1768796C142.26572 40.1768796 142.495177 39.9467447 142.495177 39.486468L142.495177 37.809754C142.495177 36.034401 141.921533 34.6371533 140.774229 33.6179691 139.626925 32.598785 138.004333 32.0892005 135.906406 32.0892005 134.39852 32.0892005 133.103725 32.3357737 132.021981 32.8289273 130.940237 33.3220809 130.169915 33.9960474 129.710994 34.850847 129.383192 35.3111238 129.071786 35.6563261 128.776765 35.8864645 128.481744 36.1166029 128.104778 36.1987939 127.645856 36.1330401L114.468313 34.4563261C113.288229 34.3248185 112.763755 33.8645487 112.894875 33.0755029 113.222677 30.2480887 114.402743 27.7001665 116.435111 25.4316598 118.467478 23.1631531 121.139018 21.3713885 124.44981 20.0563122 127.760603 18.7412358 131.481091 18.0837075 135.611386 18.0837075zM133.939608 58.9166238C136.430897 58.9166238 138.479624 58.2755337 140.08585 56.9933343 141.692076 55.7111348 142.495177 54.0179994 142.495177 51.9138773L142.495177 49.7440122C142.495177 49.2837354 142.26572 49.0536005 141.806798 49.0536005L136.103085 49.0536005C133.611796 49.0536005 131.694188 49.4809939 130.350203 50.3357936 129.006218 51.1905932 128.334235 52.4727734 128.334235 54.1823726 128.334235 55.6289566 128.82593 56.7796311 129.809333 57.6344308 130.792737 58.4892304 132.169482 58.9166238 133.939608 58.9166238zM190.288355 70.6536215C184.912415 70.6536215 180.208538 69.3056884 176.176583 66.6097819 172.144628 63.9138754 169.276411 60.1988405 167.571844 55.4645657 166.3262 52.3083824 165.703387 48.5275947 165.703387 44.1220889 165.703387 39.7165832 166.3262 35.9357954 167.571844 32.7796122 169.21085 28.176845 172.062678 24.5768775 176.127413 21.9796017 180.192148 19.3823259 184.912415 18.0837075 190.288355 18.0837075 195.729855 18.0837075 200.515681 19.4316405 204.645976 22.127547 208.776271 24.8234536 211.56254 28.2426008 213.004865 32.3850912 213.398227 33.4371523 213.660464 34.522074 213.791584 35.6398889L213.791584 36.0344098C213.791584 36.8892095 213.26711 37.4152321 212.218146 37.6124936L199.728983 39.486468 199.237283 39.5850982C198.385 39.5850982 197.893306 39.1905812 197.762185 38.4015354L197.368826 37.0207122C196.975464 35.5741282 196.123194 34.3905772 194.811989 33.4700238 193.500784 32.5494704 191.960141 32.0892005 190.190015 32.0892005 186.715322 32.0892005 184.420748 33.6343921 183.306224 36.7248215 182.585061 38.5659283 182.224485 41.0645359 182.224485 44.2207191 182.224485 47.0481333 182.552282 49.5138644 183.207884 51.6179866 184.453529 54.9714313 186.780882 56.6481284 190.190015 56.6481284 191.894581 56.6481284 193.353275 56.220735 194.566139 55.3659354 195.779004 54.5111358 196.680444 53.261832 197.270486 51.6179866L197.368826 51.1248354C197.434386 50.7960663 197.680233 50.450864 198.106375 50.089218 198.532516 49.727572 198.975041 49.5796281 199.433963 49.6453819L212.021467 51.6179866C213.201551 51.815248 213.693245 52.4727763 213.496565 53.5905912 213.365444 54.6426523 213.201546 55.4645627 213.004865 56.056347 211.431419 60.6591142 208.595981 64.2426435 204.498466 66.8070424 200.400951 69.3714413 195.664295 70.6536215 190.288355 70.6536215zM251.750775 30.2152261C251.750775 30.7412567 251.586877 31.1686501 251.259075 31.4974191 250.931274 31.8261882 250.505139 31.9905703 249.980657 31.9905703L241.818448 31.9905703C241.359526 31.9905703 241.130069 32.2207052 241.130069 32.6809819L241.130069 49.9412726C241.130069 53.6892402 242.637932 55.5631959 245.653703 55.5631959L248.702239 55.5631959C249.226721 55.5631959 249.652856 55.727578 249.980657 56.056347 250.308458 56.3851161 250.472357 56.8125095 250.472357 57.3385401L250.472357 67.6947145C250.472357 68.7467756 249.915103 69.338551 248.800579 69.4700587 245.784808 69.6015663 243.654132 69.6673191 242.408487 69.6673191 236.704746 69.6673191 232.476174 68.7467795 229.722643 66.9056726 226.969113 65.0645657 225.559589 61.6454185 225.494029 56.6481284L225.494029 32.6809819C225.494029 32.2207052 225.264572 31.9905703 224.80565 31.9905703L219.986996 31.9905703C219.462514 31.9905703 219.036379 31.8261882 218.708578 31.4974191 218.380777 31.1686501 218.216878 30.7412567 218.216878 30.2152261L218.216878 20.6480936C218.216878 20.122063 218.380777 19.6946696 218.708578 19.3659005 219.036379 19.0371315 219.462514 18.8727494 219.986996 18.8727494L224.80565 18.8727494C225.264572 18.8727494 225.494029 18.6426145 225.494029 18.1823377L225.494029 7.03712147C225.494029 6.51109093 225.657927 6.08369753 225.985728 5.75492844 226.31353 5.42615936 226.739665 5.26177728 227.264147 5.26177728L239.359951 5.26177728C239.884433 5.26177728 240.310568 5.42615936 240.638369 5.75492844 240.966171 6.08369753 241.130069 6.51109093 241.130069 7.03712147L241.130069 18.1823377C241.130069 18.6426145 241.359526 18.8727494 241.818448 18.8727494L249.980657 18.8727494C250.505139 18.8727494 250.931274 19.0371315 251.259075 19.3659005 251.586877 19.6946696 251.750775 20.122063 251.750775 20.6480936L251.750775 30.2152261zM303.969247 70.6536215C298.724428 70.6536215 294.11889 69.6015762 290.152495 67.497454 286.1861 65.3933319 283.104815 62.4344545 280.908547 58.6207331 278.712279 54.8070117 277.614161 50.401572 277.614161 45.4042819L277.614161 25.1850843C277.614161 20.1877942 278.712279 15.7987927 280.908547 12.0179482 283.104815 8.23710373 286.1861 5.29466455 290.152495 3.1905424 294.11889 1.08642025 298.724428.0343749553 303.969247.0343749553 309.148506.0343749553 313.737654 1.03710563 317.736829 3.04259705 321.736004 5.04808847 324.833679 7.79326916 327.029947 11.2782215 329.226215 14.7631738 330.324333 18.6097144 330.324333 22.8179587 330.324333 23.9357736 329.734299 24.4946726 328.554215 24.4946726L315.770032 24.4946726C314.589947 24.4946726 313.999914 24.2974141 313.999914 23.9028912L313.999914 23.3111098C313.999914 20.746711 313.098474 18.5604293 311.295567 16.7521994 309.492661 14.9439694 307.050578 14.039868 303.969247 14.039868 300.953476 14.039868 298.527783 15.0261604 296.692096 16.998775 294.85641 18.9713895 293.93858 21.5357499 293.93858 24.6919331L293.93858 45.8974331C293.93858 49.0536163 294.954748 51.6179767 296.987116 53.5905912 299.019484 55.5632057 301.576295 56.5494982 304.657626 56.5494982 307.542277 56.5494982 309.86963 55.7769024 311.639757 54.2316877 313.409883 52.686473 314.294933 50.5330678 314.294933 47.7714075L314.294933 45.2070215C314.294933 44.7467447 314.065476 44.5166098 313.606554 44.5166098L304.559286 44.5166098C304.034804 44.5166098 303.608669 44.3522278 303.280868 44.0234587 302.953067 43.6946896 302.789168 43.2672962 302.789168 42.7412657L302.789168 33.0755029C302.789168 32.5494723 302.953067 32.1220789 303.280868 31.7933098 303.608669 31.4645408 304.034804 31.3001587 304.559286 31.3001587L328.554215 31.3001587C329.078697 31.3001587 329.504832 31.4645408 329.832633 31.7933098 330.160434 32.1220789 330.324333 32.5494723 330.324333 33.0755029L330.324333 45.8974331C330.324333 50.8289694 329.226215 55.1686562 327.029947 58.9166238 324.833679 62.6645914 321.752394 65.5577159 317.785999 67.5960843 313.819604 69.6344526 309.214066 70.6536215 303.969247 70.6536215zM364.841628 18.1823377C366.939555 18.1823377 368.644096 18.5439783 369.955301 19.2672703 370.807584 19.727547 371.135381 20.4508282 370.9387 21.4371354L368.775223 34.0618052C368.709662 34.9166048 368.283527 35.3439982 367.496804 35.3439982 367.169003 35.3439982 366.906766 35.3111218 366.710085 35.245368 365.923362 35.0481065 364.939973 34.9494773 363.759889 34.9494773 362.710925 34.9494773 361.924214 35.0152301 361.399732 35.1467377 359.367365 35.409753 357.646434 36.198787 356.236889 37.5138633 354.827344 38.8289397 354.122582 40.5713897 354.122582 42.7412657L354.122582 68.0892354C354.122582 68.615266 353.958684 69.0426594 353.630882 69.3714284 353.303081 69.7001975 352.876946 69.8645796 352.352464 69.8645796L339.568281 69.8645796C339.043799 69.8645796 338.617663 69.7001975 338.289862 69.3714284 337.962061 69.0426594 337.798163 68.615266 337.798163 68.0892354L337.798163 20.6480936C337.798163 20.122063 337.962061 19.6946696 338.289862 19.3659005 338.617663 19.0371315 339.043799 18.8727494 339.568281 18.8727494L352.352464 18.8727494C352.876946 18.8727494 353.303081 19.0371315 353.630882 19.3659005 353.958684 19.6946696 354.122582 20.122063 354.122582 20.6480936L354.122582 22.8179587C354.122582 23.1467278 354.204531 23.3439863 354.368431 23.4097401 354.532332 23.4754939 354.67984 23.3768646 354.810961 23.1138494 357.43337 19.8261585 360.776893 18.1823377 364.841628 18.1823377zM397.490465 18.0837075C401.817441 18.0837075 405.750997 18.8234269 409.29125 20.3028877 412.831503 21.7823486 415.617772 23.8206864 417.650139 26.4179622 419.682507 29.0152379 420.698675 31.8919243 420.698675 35.0481075L420.698675 68.0892354C420.698675 68.615266 420.534777 69.0426594 420.206976 69.3714284 419.879174 69.7001975 419.453039 69.8645796 418.928557 69.8645796L406.144374 69.8645796C405.619892 69.8645796 405.193757 69.7001975 404.865956 69.3714284 404.538154 69.0426594 404.374256 68.615266 404.374256 68.0892354L404.374256 66.1166308C404.374256 65.7878617 404.292307 65.5906032 404.128407 65.5248494 403.964506 65.4590956 403.784218 65.5577248 403.587537 65.8207401 400.965128 69.0426771 396.736555 70.6536215 390.901694 70.6536215 385.722435 70.6536215 381.592201 69.4207559 378.51087 66.9549877 375.429539 64.4892196 373.888896 60.8563757 373.888896 56.056347 373.888896 50.9933031 375.642606 47.0810097 379.150079 44.3193494 382.657552 41.5576891 387.722005 40.1768796 394.343589 40.1768796L403.685877 40.1768796C404.144799 40.1768796 404.374256 39.9467447 404.374256 39.486468L404.374256 37.809754C404.374256 36.034401 403.800613 34.6371533 402.653309 33.6179691 401.506004 32.598785 399.883413 32.0892005 397.785485 32.0892005 396.277599 32.0892005 394.982804 32.3357737 393.90106 32.8289273 392.819316 33.3220809 392.048995 33.9960474 391.590073 34.850847 391.262272 35.3111238 390.950865 35.6563261 390.655844 35.8864645 390.360823 36.1166029 389.983857 36.1987939 389.524936 36.1330401L376.347393 34.4563261C375.167308 34.3248185 374.642834 33.8645487 374.773955 33.0755029 375.101756 30.2480887 376.281823 27.7001665 378.31419 25.4316598 380.346558 23.1631531 383.018098 21.3713885 386.32889 20.0563122 389.639682 18.7412358 393.36017 18.0837075 397.490465 18.0837075zM395.818687 58.9166238C398.309977 58.9166238 400.358703 58.2755337 401.964929 56.9933343 403.571155 55.7111348 404.374256 54.0179994 404.374256 51.9138773L404.374256 49.7440122C404.374256 49.2837354 404.144799 49.0536005 403.685877 49.0536005L397.982165 49.0536005C395.490875 49.0536005 393.573267 49.4809939 392.229282 50.3357936 390.885297 51.1905932 390.213315 52.4727734 390.213315 54.1823726 390.213315 55.6289566 390.705009 56.7796311 391.688413 57.6344308 392.671816 58.4892304 394.048561 58.9166238 395.818687 58.9166238zM476.555722 33.2727633C477.604686 36.4947004 478.12916 40.2754881 478.12916 44.6152401 478.12916 49.2837611 477.440788 53.4261894 476.064023 57.0426494 474.556137 61.119386 472.114055 64.4234658 468.737703 66.9549877 465.36135 69.4865097 461.575303 70.7522517 457.379447 70.7522517 452.396869 70.7522517 448.659991 69.2399366 446.168702 66.215261 445.972021 65.9522457 445.791733 65.8536165 445.627833 65.9193703 445.463932 65.9851241 445.381983 66.1823826 445.381983 66.5111517L445.381983 86.138568C445.381983 86.6645985 445.218085 87.0919919 444.890284 87.420761 444.562482 87.7495301 444.136347 87.9139122 443.611865 87.9139122L430.827682 87.9139122C430.3032 87.9139122 429.877065 87.7495301 429.549264 87.420761 429.221462 87.0919919 429.057564 86.6645985 429.057564 86.138568L429.057564 20.6480936C429.057564 20.122063 429.221462 19.6946696 429.549264 19.3659005 429.877065 19.0371315 430.3032 18.8727494 430.827682 18.8727494L443.611865 18.8727494C444.136347 18.8727494 444.562482 19.0371315 444.890284 19.3659005 445.218085 19.6946696 445.381983 20.122063 445.381983 20.6480936L445.381983 23.0152191C445.381983 23.3439882 445.463932 23.5412467 445.627833 23.6070005 445.791733 23.6727544 445.972021 23.5741251 446.168702 23.3111098 448.659991 19.8261575 452.396869 18.0837075 457.379447 18.0837075 461.640863 18.0837075 465.574419 19.4973934 469.180232 22.3248075 472.786045 25.1522217 475.244518 28.8015038 476.555722 33.2727633zM458.854545 52.9001796C460.03463 50.7303036 460.624663 47.8700555 460.624663 44.3193494 460.624663 40.9659047 460.067409 38.2371622 458.952885 36.1330401 457.57612 33.7001488 455.576563 32.4837215 452.954153 32.4837215 450.462864 32.4837215 448.528866 33.7330253 447.152101 36.2316703 446.037577 38.3357925 445.480323 41.0316585 445.480323 44.3193494 445.480323 47.9358093 446.070356 50.8289339 447.250441 52.9988098 448.627206 55.2344396 450.528424 56.3522377 452.954153 56.3522377 455.511003 56.3522377 457.47778 55.2015632 458.854545 52.9001796zM512.843135 18.0837075C517.956834 18.0837075 522.136237 19.7110901 525.381469 22.965904 528.626701 26.220718 530.249293 30.6425958 530.249293 36.2316703L530.249293 68.0892354C530.249293 68.615266 530.085394 69.0426594 529.757593 69.3714284 529.429792 69.7001975 529.003657 69.8645796 528.479175 69.8645796L515.694991 69.8645796C515.17051 69.8645796 514.744374 69.7001975 514.416573 69.3714284 514.088772 69.0426594 513.924874 68.615266 513.924874 68.0892354L513.924874 39.7823587C513.924874 37.4809751 513.318451 35.6234576 512.105586 34.2097505 510.892722 32.7960435 509.27013 32.0892005 507.237762 32.0892005 505.205395 32.0892005 503.566413 32.7960435 502.320769 34.2097505 501.075124 35.6234576 500.452311 37.4809751 500.452311 39.7823587L500.452311 68.0892354C500.452311 68.615266 500.288413 69.0426594 499.960612 69.3714284 499.632811 69.7001975 499.206676 69.8645796 498.682194 69.8645796L485.89801 69.8645796C485.373528 69.8645796 484.947393 69.7001975 484.619592 69.3714284 484.291791 69.0426594 484.127893 68.615266 484.127893 68.0892354L484.127893 2.598761C484.127893 2.07273046 484.291791 1.64533706 484.619592 1.31656798 484.947393.987798893 485.373528.823416816 485.89801.823416816L498.682194.823416816C499.206676.823416816 499.632811.987798893 499.960612 1.31656798 500.288413 1.64533706 500.452311 2.07273046 500.452311 2.598761L500.452311 23.4097401C500.452311 23.7385092 500.53426 23.9357676 500.698161 24.0015215 500.862062 24.0672753 501.00957 23.968646 501.14069 23.7056308 503.82866 19.9576632 507.729436 18.0837075 512.843135 18.0837075zM563.488169.0343749553C568.667428.0343749553 573.223797 1.10285846 577.157412 3.23985751 581.091026 5.37685657 584.139532 8.38504858 586.30302 12.2645238 588.466508 16.143999 589.548235 20.6151915 589.548235 25.6782354L589.548235 46.291954C589.548235 52.0782899 588.023983 57.0097522 584.975431 61.0864889 581.92688 65.1632256 577.714698 67.9577209 572.338758 69.4700587 571.945396 69.6673201 571.748719 69.9303315 571.748719 70.2591005L571.748719 77.1632168C571.748719 77.6892474 571.58482 78.1166408 571.257019 78.4454098 570.929218 78.7741789 570.503083 78.938561 569.978601 78.938561L557.194417 78.938561C556.669936 78.938561 556.2438 78.7741789 555.915999 78.4454098 555.588198 78.1166408 555.4243 77.6892474 555.4243 77.1632168L555.4243 70.2591005C555.4243 69.9303315 555.227622 69.6673201 554.834261 69.4700587 549.458321 68.0234747 545.229748 65.2618558 542.148417 61.1851191 539.067086 57.1083825 537.526443 52.1440438 537.526443 46.291954L537.526443 25.6782354C537.526443 20.6151915 538.608171 16.143999 540.771659 12.2645238 542.935147 8.38504858 545.983652 5.37685657 549.917267 3.23985751 553.850882 1.10285846 558.37447.0343749553 563.488169.0343749553zM573.223817 24.7905633C573.223817 21.5686263 572.338767 18.9713895 570.56864 16.998775 568.798514 15.0261604 566.43838 14.039868 563.488169 14.039868 560.603519 14.039868 558.276165 15.0261604 556.506038 16.998775 554.735912 18.9713895 553.850862 21.5686263 553.850862 24.7905633L553.850862 45.8974331C553.850862 49.1193701 554.735912 51.716607 556.506038 53.6892215 558.276165 55.661836 560.603519 56.6481284 563.488169 56.6481284 566.43838 56.6481284 568.798514 55.661836 570.56864 53.6892215 572.338767 51.716607 573.223817 49.1193701 573.223817 45.8974331L573.223817 24.7905633zM599.677242 69.8645796C599.15276 69.8645796 598.726625 69.7001975 598.398824 69.3714284 598.071023 69.0426594 597.907125 68.615266 597.907125 68.0892354L597.907125 2.598761C597.907125 2.07273046 598.071023 1.64533706 598.398824 1.31656798 598.726625.987798893 599.15276.823416816 599.677242.823416816L612.461426.823416816C612.985908.823416816 613.412043.987798893 613.739844 1.31656798 614.067645 1.64533706 614.231543 2.07273046 614.231543 2.598761L614.231543 55.168675C614.231543 55.6289517 614.461001 55.8590866 614.919922 55.8590866L645.503623 55.8590866C646.028105 55.8590866 646.45424 56.0234687 646.782041 56.3522377 647.109842 56.6810068 647.27374 57.1084002 647.27374 57.6344308L647.27374 68.0892354C647.27374 68.615266 647.109842 69.0426594 646.782041 69.3714284 646.45424 69.7001975 646.028105 69.8645796 645.503623 69.8645796L599.677242 69.8645796zM152.722936 181.139714C151.673972 181.139714 151.018379 180.646568 150.756138 179.66026L148.494321 171.572581C148.428761 171.178058 148.166524 170.9808 147.707602 170.9808L125.482791 170.9808C125.08943 170.9808 124.827193 171.178058 124.696072 171.572581L122.434255 179.66026C122.172014 180.646568 121.516422 181.139714 120.467458 181.139714L106.601536 181.139714C105.945933 181.139714 105.487019 180.958893 105.224778 180.597247 104.962537 180.235602 104.929757 179.758893 105.126438 179.167109L125.777811 113.578004C126.105612 112.591697 126.793984 112.098551 127.842948 112.098551L145.249106 112.098551C146.36363 112.098551 147.052002 112.591697 147.314243 113.578004L168.063956 179.167109C168.129516 179.298617 168.162296 179.528752 168.162296 179.857521 168.162296 180.71232 167.637822 181.139714 166.588858 181.139714L152.722936 181.139714zM128.728007 157.764349C128.728007 158.158872 128.924685 158.35613 129.318046 158.35613L143.872347 158.35613C144.134588 158.35613 144.314876 158.273939 144.413217 158.109554 144.511557 157.94517 144.527947 157.76435 144.462387 157.567088L136.988556 131.331446C136.922996 131.002677 136.808267 130.838295 136.644367 130.838295 136.480466 130.838295 136.332958 131.002677 136.201837 131.331446L128.728007 157.567088 128.728007 157.764349zM198.254297 181.928756C192.878357 181.928756 188.17448 180.580823 184.142525 177.884916 180.11057 175.18901 177.242353 171.473975 175.537786 166.7397 174.292142 163.583517 173.669329 159.802729 173.669329 155.397223 173.669329 150.991717 174.292142 147.21093 175.537786 144.054746 177.176792 139.451979 180.02862 135.852012 184.093355 133.254736 188.15809 130.65746 192.878357 129.358842 198.254297 129.358842 203.695797 129.358842 208.481623 130.706775 212.611918 133.402681 216.742213 136.098588 219.528482 139.517735 220.970807 143.660225 221.364169 144.712286 221.626406 145.797208 221.757526 146.915023L221.757526 147.309544C221.757526 148.164344 221.233052 148.690366 220.184088 148.887628L207.694924 150.761602 207.203225 150.860232C206.350942 150.860232 205.859247 150.465715 205.728127 149.67667L205.334767 148.295846C204.941406 146.849262 204.089136 145.665711 202.777931 144.745158 201.466726 143.824605 199.926083 143.364335 198.155957 143.364335 194.681264 143.364335 192.38669 144.909526 191.272166 147.999956 190.551003 149.841063 190.190427 152.33967 190.190427 155.495853 190.190427 158.323267 190.518223 160.788999 191.173826 162.893121 192.41947 166.246565 194.746824 167.923263 198.155957 167.923263 199.860523 167.923263 201.319217 167.495869 202.532081 166.64107 203.744946 165.78627 204.646385 164.536966 205.236428 162.893121L205.334767 162.39997C205.400328 162.071201 205.646175 161.725998 206.072316 161.364352 206.498458 161.002706 206.940983 160.854762 207.399905 160.920516L219.987408 162.893121C221.167493 163.090382 221.659187 163.747911 221.462506 164.865725 221.331386 165.917786 221.167488 166.739697 220.970807 167.331481 219.397361 171.934248 216.561923 175.517778 212.464408 178.082177 208.366893 180.646575 203.630237 181.928756 198.254297 181.928756zM249.68605 129.358842C254.013026 129.358842 257.946581 130.098561 261.486834 131.578022 265.027087 133.057483 267.813356 135.095821 269.845724 137.693096 271.878091 140.290372 272.89426 143.167058 272.89426 146.323242L272.89426 179.36437C272.89426 179.8904 272.730361 180.317794 272.40256 180.646563 272.074759 180.975332 271.648624 181.139714 271.124142 181.139714L258.339958 181.139714C257.815477 181.139714 257.389341 180.975332 257.06154 180.646563 256.733739 180.317794 256.569841 179.8904 256.569841 179.36437L256.569841 177.391765C256.569841 177.062996 256.487892 176.865737 256.323991 176.799984 256.160091 176.73423 255.979803 176.832859 255.783122 177.095874 253.160712 180.317811 248.93214 181.928756 243.097278 181.928756 237.918019 181.928756 233.787786 180.69589 230.706454 178.230122 227.625123 175.764354 226.08448 172.13151 226.08448 167.331481 226.08448 162.268437 227.838191 158.356144 231.345664 155.594484 234.853137 152.832823 239.917589 151.452014 246.539174 151.452014L255.881462 151.452014C256.340383 151.452014 256.569841 151.221879 256.569841 150.761602L256.569841 149.084888C256.569841 147.309535 255.996197 145.912287 254.848893 144.893103 253.701589 143.873919 252.078997 143.364335 249.981069 143.364335 248.473184 143.364335 247.178388 143.610908 246.096644 144.104061 245.0149 144.597215 244.244579 145.271182 243.785657 146.125981 243.457856 146.586258 243.14645 146.93146 242.851429 147.161599 242.556408 147.391737 242.179442 147.473928 241.72052 147.408174L228.542977 145.73146C227.362893 145.599953 226.838419 145.139683 226.969539 144.350637 227.297341 141.523223 228.477407 138.975301 230.509775 136.706794 232.542142 134.438287 235.213682 132.646523 238.524474 131.331446 241.835267 130.01637 245.555754 129.358842 249.68605 129.358842zM248.014272 170.191758C250.505561 170.191758 252.554288 169.550668 254.160514 168.268468 255.76674 166.986269 256.569841 165.293134 256.569841 163.189011L256.569841 161.019146C256.569841 160.55887 256.340383 160.328735 255.881462 160.328735L250.177749 160.328735C247.68646 160.328735 245.768852 160.756128 244.424867 161.610928 243.080882 162.465727 242.408899 163.747908 242.408899 165.457507 242.408899 166.904091 242.900594 168.054765 243.883997 168.909565 244.867401 169.764365 246.244145 170.191758 248.014272 170.191758zM311.443489 113.873895C311.443489 113.347865 311.607388 112.920471 311.935189 112.591702 312.26299 112.262933 312.689125 112.098551 313.213607 112.098551L325.99779 112.098551C326.522272 112.098551 326.948408 112.262933 327.276209 112.591702 327.60401 112.920471 327.767908 113.347865 327.767908 113.873895L327.767908 179.36437C327.767908 179.8904 327.60401 180.317794 327.276209 180.646563 326.948408 180.975332 326.522272 181.139714 325.99779 181.139714L313.213607 181.139714C312.689125 181.139714 312.26299 180.975332 311.935189 180.646563 311.607388 180.317794 311.443489 179.8904 311.443489 179.36437L311.443489 176.997244C311.443489 176.668475 311.36154 176.471216 311.19764 176.405463 311.033739 176.339709 310.853451 176.438338 310.65677 176.701353 308.165481 180.186306 304.428603 181.928756 299.446025 181.928756 295.184609 181.928756 291.251054 180.51507 287.64524 177.687656 284.039427 174.860241 281.580955 171.210959 280.26975 166.7397 279.220786 163.517763 278.696312 159.736975 278.696312 155.397223 278.696312 150.728702 279.384684 146.586274 280.761449 142.969814 282.269335 138.893077 284.711417 135.588997 288.08777 133.057475 291.464122 130.525953 295.250169 129.260211 299.446025 129.260211 304.428603 129.260211 308.165481 130.772527 310.65677 133.797202 310.853451 134.060217 311.033739 134.158847 311.19764 134.093093 311.36154 134.027339 311.443489 133.830081 311.443489 133.501311L311.443489 113.873895zM309.673372 163.780793C310.787896 161.676671 311.34515 158.980805 311.34515 155.693114 311.34515 152.076654 310.755116 149.183529 309.575032 147.013653 308.198267 144.778024 306.297048 143.660225 303.871319 143.660225 301.31447 143.660225 299.347692 144.8109 297.970927 147.112284 296.790843 149.28216 296.200809 152.142408 296.200809 155.693114 296.200809 159.046558 296.758063 161.775301 297.872587 163.879423 299.249352 166.312314 301.24891 167.528742 303.871319 167.528742 306.362608 167.528742 308.296607 166.279438 309.673372 163.780793zM361.793504 168.021893C363.825871 168.021893 365.7107 167.709567 367.448047 167.084906 369.185393 166.460244 370.644086 165.621896 371.824171 164.569835 372.217532 164.109558 372.643667 163.879423 373.102589 163.879423 373.495951 163.879423 373.889306 164.109558 374.282668 164.569835L380.37974 171.868472C380.773101 172.328749 380.969779 172.756142 380.969779 173.150665 380.969779 173.610942 380.773101 174.038335 380.37974 174.432858 378.150691 176.799995 375.331643 178.641075 371.922511 179.956151 368.513378 181.271227 364.874839 181.928756 361.006785 181.928756 356.548688 181.928756 352.598743 181.123283 349.15683 179.512315 345.714918 177.901346 342.87948 175.649312 340.650431 172.756144 337.044618 168.153377 335.241738 162.301375 335.241738 155.199963 335.241738 152.043779 335.602314 149.084902 336.323477 146.323242 337.765802 141.194444 340.584851 137.068454 344.780706 133.945147 348.976562 130.821841 353.893506 129.260211 359.531687 129.260211 366.087711 129.260211 371.381621 131.298549 375.413576 135.375286 379.445531 139.452023 382.084291 145.139642 383.329936 152.438316 383.592177 154.279423 383.788855 156.284884 383.919975 158.45476 383.919975 159.638329 383.329942 160.230104 382.149857 160.230104L352.451216 160.230104C352.254535 160.230104 352.074247 160.295857 351.910347 160.427365 351.746446 160.558873 351.697277 160.756131 351.762837 161.019146L352.352876 162.991751C353.008479 164.569843 354.155766 165.802708 355.794772 166.690385 357.433778 167.578061 359.433335 168.021893 361.793504 168.021893zM359.236667 143.364335C355.893095 143.364335 353.6313 144.975279 352.451216 148.197216 352.188975 148.854754 352.025077 149.347901 351.959517 149.67667L351.959517 149.87393C351.959517 150.268453 352.188974 150.465711 352.647896 150.465711L366.120458 150.465711C366.382699 150.465711 366.562987 150.38352 366.661328 150.219136 366.759668 150.054751 366.776058 149.873931 366.710498 149.67667L366.317138 148.394477C365.792656 146.816385 364.940386 145.583519 363.760301 144.695843 362.580217 143.808166 361.072354 143.364335 359.236667 143.364335zM448.922631 129.358842C454.036329 129.358842 458.035444 130.93691 460.920095 134.093093 463.804746 137.249276 465.247049 141.687592 465.247049 147.408174L465.247049 179.36437C465.247049 179.8904 465.083151 180.317794 464.75535 180.646563 464.427549 180.975332 464.001414 181.139714 463.476932 181.139714L450.791088 181.139714C450.266606 181.139714 449.840471 180.975332 449.51267 180.646563 449.184869 180.317794 449.02097 179.8904 449.02097 179.36437L449.02097 150.958863C449.02097 148.723233 448.447327 146.898592 447.300023 145.484885 446.152718 144.071178 444.628466 143.364335 442.727219 143.364335 440.825972 143.364335 439.268939 144.054739 438.056075 145.43557 436.84321 146.8164 436.236787 148.657479 436.236787 150.958863L436.236787 179.36437C436.236787 179.8904 436.072889 180.317794 435.745088 180.646563 435.417286 180.975332 434.991151 181.139714 434.466669 181.139714L421.682486 181.139714C421.158004 181.139714 420.731869 180.975332 420.404068 180.646563 420.076266 180.317794 419.912368 179.8904 419.912368 179.36437L419.912368 150.958863C419.912368 148.723233 419.305945 146.898592 418.093081 145.484885 416.880216 144.071178 415.323184 143.364335 413.421937 143.364335 411.65181 143.364335 410.176727 143.923234 408.996642 145.041049 407.816558 146.158864 407.095406 147.638302 406.833165 149.479409L406.833165 179.36437C406.833165 179.8904 406.669267 180.317794 406.341466 180.646563 406.013665 180.975332 405.58753 181.139714 405.063048 181.139714L392.278864 181.139714C391.754382 181.139714 391.328247 180.975332 391.000446 180.646563 390.672645 180.317794 390.508747 179.8904 390.508747 179.36437L390.508747 131.923228C390.508747 131.397197 390.672645 130.969804 391.000446 130.641035 391.328247 130.312266 391.754382 130.147884 392.278864 130.147884L405.063048 130.147884C405.58753 130.147884 406.013665 130.312266 406.341466 130.641035 406.669267 130.969804 406.833165 131.397197 406.833165 131.923228L406.833165 135.375286C406.833165 135.704055 406.915114 135.884875 407.079015 135.917752 407.242916 135.950629 407.423204 135.835562 407.619884 135.572546 410.242294 131.430056 414.372527 129.358842 420.010708 129.358842 423.22316 129.358842 426.058598 130.065685 428.517107 131.479392 430.975616 132.893099 432.893225 134.947875 434.26999 137.643781 434.40111 137.906796 434.548618 138.021864 434.712519 137.988987 434.87642 137.95611 435.023928 137.808166 435.155048 137.545151 437.908579 132.087584 442.497727 129.358842 448.922631 129.358842zM473.605938 200.76713C473.409258 200.76713 473.24536 200.602748 473.114239 200.273979 472.983119 199.94521 472.917559 199.517816 472.917559 198.991786L472.917559 189.128763C472.917559 188.602732 472.983119 188.175339 473.114239 187.84657 473.24536 187.517801 473.376478 187.353418 473.507599 187.353418L473.999298 187.353418C478.195153 187.353418 481.1781 186.991778 482.948226 186.268486 484.718353 185.545194 485.83286 184.000002 486.291782 181.632865 486.357342 181.36985 486.357342 181.073962 486.291782 180.745193L470.754082 132.120488C470.688522 131.923227 470.655742 131.693092 470.655742 131.430077 470.655742 130.575277 471.147437 130.147884 472.13084 130.147884L485.898422 130.147884C486.422904 130.147884 486.865429 130.295827 487.226011 130.59172 487.586592 130.887612 487.79966 131.265691 487.86522 131.725967L494.257312 157.468458C494.388432 157.731473 494.53594 157.862979 494.699841 157.862979 494.863742 157.862979 494.97847 157.731473 495.044031 157.468458L501.239442 131.725967C501.305003 131.265691 501.51807 130.887612 501.878652 130.59172 502.239233 130.295827 502.681758 130.147884 503.20624 130.147884L516.875482 130.147884C517.531085 130.147884 517.989999 130.328704 518.25224 130.69035 518.514481 131.051996 518.547261 131.528704 518.35058 132.120488L502.026161 182.126016C500.387155 187.057552 498.666225 190.789026 496.863318 193.320547 495.060412 195.852069 492.438041 197.726025 488.996128 198.942471 485.554216 200.158916 480.653661 200.76713 474.294318 200.76713L473.605938 200.76713z" transform="translate(0 290)"/>
    <g transform="translate(185)">
      <path fill="#267280" d="M36.4716842,143.87784 C51.9909907,175.141177 84.227103,210.684364 133.19339,250.242094 C185.994656,208.34661 219.592606,172.754352 233.927078,143.87784 C248.026607,115.474617 253.891475,72.5135836 251.241363,15.1401869 L15.2394433,15.1401869 C14.048532,70.1702257 21.192574,113.098374 36.4716842,143.87784 Z M265.550703,0 L265.958951,7.13696352 C269.582734,70.4876559 263.521086,118.260601 247.457739,150.619897 C231.471021,182.824826 194.943532,221.091231 137.809608,265.86904 L133.118069,269.54596 L128.454202,265.833871 C75.287453,223.517121 40.111504,185.209491 22.9410235,150.619897 C5.71328885,115.914965 -1.74411378,68.1628433 0.341460452,7.31031055 L0.592003768,0 L265.550703,0 Z"/>
      <g transform="translate(55.41 25.234)">
        <path fill="#E61DA4" d="M11.3337671,72.3864969 C4.7569986,70.2578952 0,64.0733739 0,56.7757009 C0,47.7171987 7.32954497,40.3738318 16.3709969,40.3738318 C19.9990771,40.3738318 23.3515077,41.5562542 26.0653192,43.5574452 L63.6689364,21.1735094 C63.2114104,19.6636126 62.9653727,18.0615276 62.9653727,16.4018692 C62.9653727,7.34336695 70.2949176,0 79.3363696,0 C88.3778215,0 95.7073664,7.34336695 95.7073664,16.4018692 C95.7073664,18.1939993 95.4204844,19.9189982 94.8902208,21.5332834 L130.922228,42.9817026 C133.476244,41.3314728 136.518062,40.3738318 139.783127,40.3738318 C148.824579,40.3738318 156.154124,47.7171987 156.154124,56.7757009 C156.154124,63.1036024 152.577415,68.5945433 147.338974,71.3299348 L147.338972,110.352307 C152.577414,113.087698 156.154124,118.57864 156.154124,124.906542 C156.154124,133.965044 148.824579,141.308411 139.783127,141.308411 C135.524632,141.308411 131.645903,139.679373 128.733899,137.009364 L95.3635037,156.873431 C95.5888976,157.95807 95.7073664,159.081996 95.7073664,160.233645 C95.7073664,169.292147 88.3778215,176.635514 79.3363696,176.635514 C70.2949176,176.635514 62.9653727,169.292147 62.9653727,160.233645 C62.9653727,158.716621 63.1709375,157.247701 63.5556818,155.853318 L30.6811651,136.284428 C27.7031942,139.381594 23.5209956,141.308411 18.8896118,141.308411 C9.84815988,141.308411 2.51861491,133.965044 2.51861491,124.906542 C2.51861491,118.578641 6.09532416,113.0877 11.3337651,110.352308 L11.3337671,72.3864969 Z M18.8896118,72.9846635 L18.8896118,108.504673 C27.9310637,108.504673 35.2606087,115.84804 35.2606087,124.906542 C35.2606087,126.722124 34.9661692,128.468807 34.4225209,130.101274 L66.9756558,149.478858 C69.9771404,146.019127 74.4017942,143.831776 79.3363696,143.831776 C84.634775,143.831776 89.345293,146.353568 92.3374126,150.264509 L124.602576,131.058342 C123.834884,129.158643 123.41213,127.082055 123.41213,124.906542 C123.41213,115.84804 130.741675,108.504673 139.783127,108.504673 L139.783127,73.1775701 C130.741675,73.1775701 123.41213,65.8342031 123.41213,56.7757009 C123.41213,53.6807691 124.267722,50.7860482 125.754858,48.316007 L91.1741458,27.7314861 C88.1933073,30.8568896 83.991766,32.8037383 79.3363696,32.8037383 C74.5459686,32.8037383 70.2361276,30.7423367 67.2423625,27.4566252 L30.8520876,49.1183066 C32.0587282,51.4040906 32.7419938,54.0099527 32.7419938,56.7757009 C32.7419938,64.9760958 26.7353241,71.7709121 18.8896118,72.9846635 Z"/>
        <path fill="#00D2FF" d="M86.1766757,124.901314 C83.9214472,124.979282 81.6399855,125.018913 79.3363696,125.018913 C77.0327536,125.018913 74.7512919,124.979282 72.4960634,124.901314 C74.7684204,127.685675 77.0566656,130.290682 79.3363696,132.699906 C81.6160691,130.290687 83.9043166,127.685678 86.1766757,124.901314 Z M96.1948915,124.290727 C92.4383955,129.312391 88.5734963,133.909496 84.6815209,138.007534 C97.0516586,149.499941 108.584413,154.691337 115.226632,150.85645 C121.531594,147.216278 122.996481,135.693485 119.906583,120.45565 C112.662121,122.23982 104.676667,123.544044 96.1948915,124.290727 Z M38.7661564,120.45565 C35.6762583,135.693485 37.1411448,147.216278 43.4461071,150.85645 C50.0883262,154.691337 61.6210805,149.499941 73.9912092,138.007524 C70.0992369,133.909488 66.2343407,129.312387 62.4778476,124.290727 C53.9960724,123.544044 46.0106182,122.23982 38.7661564,120.45565 Z M31.5112167,118.430925 C12.3963686,112.419566 0,102.722238 0,91.1396419 C0,79.348003 12.847866,69.5102973 32.5527034,63.5264926 C27.3584617,42.7328334 29.2399325,26.0061348 39.6681848,19.9853806 C49.7361196,14.1726557 64.4628524,20.2484579 79.3363696,34.0791918 C94.2098867,20.2484579 108.93662,14.1726557 119.004554,19.9853806 C129.432807,26.0061348 131.314277,42.7328334 126.120036,63.5264926 C145.824873,69.5102973 158.672739,79.348003 158.672739,91.1396419 C158.672739,102.722238 146.276371,112.419566 127.161522,118.430925 C130.986909,137.082833 128.656745,151.827309 119.004554,157.400004 C108.93662,163.212728 94.2098867,157.136926 79.3363696,143.306192 C64.4628524,157.136926 49.7361196,163.212728 39.6681848,157.400004 C30.0159944,151.827309 27.6858306,137.082833 31.5112167,118.430925 Z M84.6815299,39.3778597 C89.8972462,44.8697262 95.0643357,51.2578768 99.9870641,58.362993 C106.660113,59.0943561 112.990785,60.1762756 118.853166,61.5688231 C123.239431,44.0549234 122.156875,30.530112 115.226632,26.5289341 C108.584413,22.6940471 97.0516586,27.8854428 84.6815299,39.3778597 Z M58.6856706,58.3629994 C63.6084036,51.2578759 68.7754983,44.8697194 73.9912197,39.3778486 C61.6210805,27.8854428 50.0883262,22.6940471 43.4461071,26.5289341 C36.5158636,30.530112 35.4333078,44.0549234 39.8195726,61.5688231 C45.6819537,60.1762756 52.0126265,59.0943561 58.6856706,58.3629994 Z M68.5257941,57.5561168 C72.0622881,57.3606897 75.671289,57.2603712 79.3363696,57.2603712 C83.0014501,57.2603712 86.610451,57.3606897 90.146945,57.5561168 C86.586847,52.8173641 82.9508724,48.5053377 79.3363696,44.685478 C75.7218677,48.505336 72.0858864,52.8173705 68.5258043,57.5561031 Z M92.1972905,117.040775 C95.5923717,112.323471 98.8997364,107.222529 102.03255,101.796338 C104.569353,97.4024658 106.864235,93.0161077 108.913402,88.6926921 C106.864235,84.3692764 104.569353,79.9829183 102.03255,75.5890464 C100.015646,72.095666 97.9263937,68.7370948 95.7879652,65.5289126 C90.5094043,65.0471059 85.0023728,64.789098 79.3363696,64.789098 C73.6703663,64.789098 68.1633348,65.0471059 62.8847739,65.5289126 C60.7463454,68.7370948 58.6570936,72.095666 56.6401895,75.5890464 C54.1033863,79.9829183 51.808504,84.3692764 49.7593368,88.6926921 C51.808504,93.0161077 54.1033863,97.4024658 56.6401895,101.796338 C59.7730039,107.222531 63.0803697,112.323474 66.4754522,117.04078 C70.6452419,117.335065 74.9430167,117.490186 79.3363696,117.490186 C83.7297224,117.490186 88.0274972,117.335065 92.1972945,117.04077 Z M101.991501,116.069111 C107.733153,115.329656 113.148201,114.322292 118.136606,113.096258 C116.780114,108.184047 115.013588,102.993001 112.844849,97.6373512 C111.482683,100.266131 110.039413,102.903639 108.517172,105.540236 C106.412522,109.185599 104.230884,112.701099 101.991501,116.069111 Z M53.2346705,66.6918687 C49.2680471,67.2904925 45.4751235,68.0182869 41.8913505,68.8578021 C43.0074776,72.3827878 44.3205336,76.0256522 45.8278905,79.748033 C47.1900558,77.1192531 48.6333265,74.4817449 50.1555666,71.8451476 C51.1649347,70.0968709 52.1920101,68.3784631 53.2346705,66.6918687 Z M40.5361334,113.096258 C45.5245385,114.322292 50.9395856,115.329656 56.6812383,116.069111 C54.4418549,112.701099 52.2602175,109.185599 50.1555666,105.540236 C48.6333265,102.903639 47.1900558,100.266131 45.8278905,97.6373512 C43.6591421,102.993025 41.8926184,108.184068 40.5361283,113.096277 Z M33.2857583,111.067651 C35.2442794,103.952274 37.9968915,96.4095884 41.4875129,88.6926921 C38.7215759,82.5778928 36.4190228,76.5724776 34.6077558,70.8023702 C18.0949611,75.7964499 7.55584472,83.3246119 7.55584472,91.1396419 C7.55584472,98.7440498 17.5345389,106.076844 33.2857583,111.067651 Z M116.781389,68.8578021 C113.197616,68.0182869 109.404692,67.2904925 105.438069,66.6918687 C106.480729,68.3784631 107.507804,70.0968709 108.517172,71.8451476 C110.039413,74.4817449 111.482683,77.1192531 112.844849,79.748033 C114.352211,76.0256356 115.665263,72.3827816 116.78139,68.8577972 Z M124.064983,70.8023702 C122.253716,76.5724776 119.951163,82.5778928 117.185226,88.6926921 C120.675848,96.4095884 123.42846,103.952274 125.386981,111.067651 C141.1382,106.076844 151.116894,98.7440498 151.116894,91.1396419 C151.116894,83.3246119 140.577778,75.7964499 124.064983,70.8023702 Z M79.3363696,98.9579352 C72.8716744,98.9579352 67.6310036,93.7073815 67.6310036,87.2304953 C67.6310036,80.7536091 72.8716744,75.5030554 79.3363696,75.5030554 C85.8010647,75.5030554 91.0417356,80.7536091 91.0417356,87.2304953 C91.0417356,93.7073815 85.8010647,98.9579352 79.3363696,98.9579352 Z"/>
      </g>
    </g>
  </g>
</svg>
