<svg xmlns="http://www.w3.org/2000/svg" width="484" height="492" viewBox="0 0 484 492">
  <g fill="none">
    <path fill="#FFF" d="M470.521395,8 L471.232458,20.4974857 C477.544159,131.430429 466.986323,215.085291 439.00809,271.749422 C411.163325,328.143243 347.541806,395.151271 248.029159,473.561372 L239.8577,480 L231.73444,473.499788 C139.131594,399.399229 77.8641093,332.319013 47.9575345,271.749422 C17.9512377,210.977865 4.96235433,127.359467 8.59488994,20.8010324 L9.03127216,8 L470.521395,8 Z"/>
    <path fill="#267280" d="M66.1201002,262.619025 C94.2552316,319.683734 152.696455,384.560419 241.468007,456.764814 C337.192035,380.293335 398.102149,315.327082 424.089281,262.619025 C449.650481,210.774858 460.282968,132.358441 455.478549,27.6352573 L27.6279236,27.6352573 C25.4689067,128.08113 38.4204236,206.437521 66.1201002,262.619025 Z M481.420118,0 L482.160236,13.0270402 C488.729834,128.660532 477.740603,215.860091 448.619174,274.925245 C419.636666,333.708635 353.415558,403.555986 249.836802,485.288549 L241.331456,492 L232.876277,485.224355 C136.489659,407.983942 72.7187719,338.061344 41.590208,274.925245 C10.3578475,211.578622 -3.16176453,124.417071 0.619197268,13.3434491 L1.07341016,0 L481.420118,0 Z"/>
    <g transform="translate(101 46)">
      <path fill="#E61DA4" d="M20.5714286,132.36771 C8.63422163,128.475297 0,117.166131 0,103.821429 C0,87.256831 13.3035389,73.8285714 29.7142857,73.8285714 C36.2994563,73.8285714 42.384307,75.9907775 47.3100283,79.6502037 L115.562722,38.7183946 C114.732287,35.9573606 114.285714,33.0277491 114.285714,29.9928571 C114.285714,13.4282595 127.589253,0 144,0 C160.410747,0 173.714286,13.4282595 173.714286,29.9928571 C173.714286,33.2699899 173.193579,36.4243649 172.23112,39.3762862 L237.631253,78.5973875 C242.266935,75.5797371 247.788007,73.8285714 253.714286,73.8285714 C270.125033,73.8285714 283.428571,87.256831 283.428571,103.821429 C283.428571,115.392783 276.936642,125.433651 267.428575,130.435655 L267.428571,201.792915 C276.93664,206.794918 283.428571,216.835787 283.428571,228.407143 C283.428571,244.97174 270.125033,258.4 253.714286,258.4 C245.984876,258.4 238.944764,255.421102 233.659312,250.538657 L173.090155,286.862575 C173.499258,288.845971 173.714286,290.901211 173.714286,293.007143 C173.714286,309.57174 160.410747,323 144,323 C127.589253,323 114.285714,309.57174 114.285714,293.007143 C114.285714,290.233077 114.658826,287.546973 115.357159,284.997171 L55.6880507,249.213021 C50.2828651,254.876576 42.6919379,258.4 34.2857143,258.4 C17.8749674,258.4 4.57142857,244.97174 4.57142857,228.407143 C4.57142857,216.835788 11.0633583,206.79492 20.571425,201.792917 L20.5714286,132.36771 Z M34.2857143,133.461532 L34.2857143,198.414286 C50.6964611,198.414286 64,211.842545 64,228.407143 C64,231.727161 63.4655757,234.921187 62.4788232,237.906355 L121.564605,273.340678 C127.01247,267.014129 135.043467,263.014286 144,263.014286 C153.616906,263.014286 162.166762,267.625696 167.597629,274.777338 L226.160726,239.656474 C224.767322,236.182638 224,232.385339 224,228.407143 C224,211.842545 237.303539,198.414286 253.714286,198.414286 L253.714286,133.814286 C237.303539,133.814286 224,120.386026 224,103.821429 C224,98.1619609 225.552947,92.8686038 228.252184,88.3518264 L165.486234,50.7104704 C160.075843,56.4256593 152.449808,59.9857143 144,59.9857143 C135.305151,59.9857143 127.482546,56.2161852 122.048693,50.2078532 L55.9982848,89.818931 C58.1884058,93.9987712 59.4285714,98.763914 59.4285714,103.821429 C59.4285714,118.81687 48.526126,131.242037 34.2857143,133.461532 Z"/>
      <path fill="#00D2FF" d="M156.4293,228.397102 C152.331454,228.539994 148.185877,228.612626 144,228.612626 C139.814123,228.612626 135.668546,228.539994 131.5707,228.397102 C135.699554,233.428373 139.857446,238.133334 144,242.482338 C148.142546,238.133343 152.300442,233.428378 156.4293,228.397102 Z M174.79552,227.263575 C167.949399,236.379935 160.903347,244.718875 153.806381,252.144464 C176.18875,272.750371 197.057899,281.993608 209.142857,275.016354 C220.605356,268.398477 223.381604,247.640455 217.959252,220.187991 C204.780723,223.477737 190.243034,225.884121 174.79552,227.263575 Z M70.0407477,220.187991 C64.6183958,247.640455 67.3946444,268.398477 78.8571429,275.016354 C90.9421011,281.993608 111.81125,272.750371 134.193601,252.144445 C127.096641,244.718861 120.050595,236.379927 113.20448,227.263575 C97.7569657,225.884121 83.2192773,223.477737 70.0407477,220.187991 Z M56.7909834,216.437297 C22.3256907,205.435371 0,187.758131 0,166.660167 C0,145.183587 23.13418,127.251605 58.6581624,116.297194 C49.4233857,78.7007689 52.9979597,48.4487903 72,37.4779572 C90.3377199,26.8906697 117.042464,37.7243831 144,62.57732 C170.957536,37.7243831 197.66228,26.8906697 216,37.4779572 C235.00204,48.4487903 238.576614,78.7007689 229.341838,116.297194 C264.86582,127.251605 288,145.183587 288,166.660167 C288,187.758131 265.674309,205.435371 231.209017,216.437297 C237.950786,250.117219 233.571142,276.74857 216,286.893274 C197.66228,297.480561 170.957536,286.646848 144,261.793911 C117.042464,286.646848 90.3377199,297.480561 72,286.893274 C54.4288579,276.74857 50.0492139,250.117219 56.7909834,216.437297 Z M153.806399,72.2267857 C163.337062,82.198765 172.775904,93.8179156 181.762026,106.755027 C193.903101,108.106586 205.416999,110.102735 216.072967,112.669744 C223.852528,81.0533177 221.759239,56.6389482 209.142857,49.354877 C197.057899,42.3776231 176.18875,51.6208599 153.806399,72.2267857 Z M106.237974,106.755027 C115.224103,93.8179062 124.662952,82.1987481 134.193622,72.2267639 C111.81125,51.6208599 90.9421011,42.3776231 78.8571429,49.354877 C66.2407615,56.6389482 64.1474717,81.0533177 71.9270331,112.669744 C82.5830009,110.102735 94.0968988,108.106586 106.237974,106.755027 Z M124.271656,105.254464 C130.724644,104.893189 137.310863,104.707708 144,104.707708 C150.689137,104.707708 157.275356,104.893189 163.728344,105.254464 C157.232809,96.6430525 150.596957,88.8146177 144,81.888893 C137.403053,88.814606 130.767196,96.6430461 124.271656,105.254464 Z M167.494916,214.012794 C173.715172,205.398248 179.771768,196.073678 185.502787,186.147261 C190.141207,178.113282 194.331569,170.091727 198.067125,162.185615 C194.331569,154.279503 190.141207,146.257948 185.502787,138.22397 C181.81718,131.840311 177.996922,125.705561 174.08508,119.848491 C164.435872,118.954122 154.364471,118.474922 144,118.474922 C133.635529,118.474922 123.564128,118.954122 113.91492,119.848491 C110.003078,125.705561 106.18282,131.840311 102.497213,138.22397 C97.8587931,146.257948 93.6684314,154.279503 89.9328747,162.185615 C93.6684314,170.091727 97.8587931,178.113282 102.497213,186.147261 C108.228235,196.073682 114.284833,205.398256 120.505091,214.012804 C128.120917,214.557953 135.972556,214.845413 144,214.845413 C152.027444,214.845413 159.879083,214.557953 167.494924,214.012783 Z M185.442832,212.204777 C195.881652,210.838609 205.722398,208.980674 214.781941,206.721786 C212.349293,197.785248 209.165217,188.338032 205.243437,178.58968 C202.763777,183.381252 200.13491,188.188418 197.360726,192.993445 C193.519105,199.647328 189.534603,206.061934 185.442832,212.204777 Z M96.236054,122.013625 C89.0406898,123.117848 82.1623799,124.458167 75.6656596,126.002577 C77.6713784,132.404103 80.0365389,139.020398 82.7565626,145.781551 C85.236223,140.989978 87.8650896,136.182813 90.6392735,131.377786 C92.4735838,128.200667 94.3404696,125.078101 96.236054,122.013625 Z M73.2180586,206.721786 C82.2776019,208.980674 92.1183477,210.838609 102.557168,212.204777 C98.4653984,206.061937 94.4808956,199.64733 90.6392735,192.993445 C87.8650896,188.188418 85.236223,183.381252 82.7565626,178.58968 C78.8347832,188.338032 75.6507073,197.785248 73.2180586,206.721786 Z M59.9806284,202.961644 C63.5006923,189.997311 68.4800918,176.250171 74.8167463,162.185636 C69.7998198,151.050267 65.633666,140.113874 62.3689556,129.607416 C32.6537082,138.740081 13.7142857,152.440438 13.7142857,166.660167 C13.7142857,180.495132 31.6426296,193.83845 59.9806422,202.961593 Z M212.33434,126.002577 C205.83762,124.458167 198.95931,123.117848 191.763946,122.013625 C193.65953,125.078101 195.526416,128.200667 197.360726,131.377786 C200.13491,136.182813 202.763777,140.989978 205.243437,145.781551 C207.963462,139.020395 210.328624,132.404097 212.334343,126.002567 Z M225.631041,129.607427 C222.366333,140.113874 218.200184,151.050256 213.183255,162.185592 C219.519895,176.250139 224.499293,189.997268 228.019358,202.961593 C256.35737,193.83845 274.285714,180.495132 274.285714,166.660167 C274.285714,152.440438 255.346292,138.740081 225.631036,129.607442 Z M144,180.956889 C132.266213,180.956889 122.754098,171.355598 122.754098,159.511807 C122.754098,147.668015 132.266213,138.066725 144,138.066725 C155.733787,138.066725 165.245902,147.668015 165.245902,159.511807 C165.245902,171.355598 155.733787,180.956889 144,180.956889 Z"/>
    </g>
  </g>
</svg>
